<?xml version="1.0" encoding="UTF-8"?>
<svg version="1.1" xmlns="http://www.w3.org/2000/svg" width="1024" height="1024">
<path d="M0 0 C337.92 0 675.84 0 1024 0 C1024 337.92 1024 675.84 1024 1024 C686.08 1024 348.16 1024 0 1024 C0 686.08 0 348.16 0 0 Z " fill="#2F2E2F" transform="translate(0,0)"/>
<path d="M0 0 C337.92 0 675.84 0 1024 0 C1024 337.92 1024 675.84 1024 1024 C686.08 1024 348.16 1024 0 1024 C0 686.08 0 348.16 0 0 Z M259.07177734 43.00146484 C254.48560958 49.63914013 251.23705443 57.03068102 247.8125 64.3125 C246.97227131 66.07070518 246.13086801 67.82834947 245.28833008 69.58544922 C239.98462451 80.6762157 234.7812827 91.81585948 229.6418457 102.98364258 C225.85705522 111.20336792 221.95312153 119.36047885 218 127.5 C211.73803272 140.40047256 205.66823579 153.3848918 199.66162109 166.40625 C197.89244297 170.23262409 196.11360389 174.05438712 194.33203125 177.875 C193.72661351 179.17438363 193.12122577 180.47378125 192.51586914 181.77319336 C191.64024746 183.65271633 190.76422568 185.53204571 189.88668823 187.41067505 C189.08443237 189.1285595 188.28435254 190.84745966 187.484375 192.56640625 C186.79939941 194.03509155 186.79939941 194.03509155 186.10058594 195.53344727 C180.72492557 207.58098425 185.20974968 222.0408376 187.6875 234.375 C188.06143308 236.28206893 188.4345549 238.1892971 188.80688477 240.09667969 C190.76269946 250.06170852 192.8223021 259.99898789 195.03030396 269.91123962 C196.52850127 276.69550508 197.88677313 283.49529458 199.1640625 290.32421875 C199.56143661 292.41187789 199.95931686 294.49944075 200.35766602 296.58691406 C200.95851848 299.74201765 201.55513621 302.89762447 202.13839722 306.05603027 C202.6872569 309.02771212 203.25066509 311.99633631 203.81640625 314.96484375 C203.97674347 315.85668869 204.13708069 316.74853363 204.30227661 317.66740417 C205.77028305 325.25195379 208.44186921 332.44186921 214 338 C221.27851512 342.74790556 227.8252305 342.52437523 236.34375 342.390625 C237.72236302 342.38315155 239.10098676 342.37746384 240.47961426 342.37347412 C244.08343565 342.35830419 247.68659772 342.31909968 251.29016113 342.2746582 C254.97720423 342.23351681 258.66435533 342.21542314 262.3515625 342.1953125 C269.56800679 342.15259471 276.78391052 342.08445134 284 342 C283.42894531 342.84143555 282.85789062 343.68287109 282.26953125 344.54980469 C271.23318639 360.81688625 260.21960609 377.09981032 249.28198242 393.43347168 C248.22208219 395.01488307 247.16056711 396.59521338 246.09741211 398.17443848 C244.60601548 400.39065997 243.12063393 402.61079586 241.63671875 404.83203125 C241.19502853 405.48583267 240.75333832 406.13963409 240.29826355 406.81324768 C232.74530424 418.16946422 234.77648322 428.44831239 237.1875 441.32421875 C237.40946045 442.55163284 237.6314209 443.77904694 237.86010742 445.0436554 C238.56440828 448.92663993 239.28197495 452.8070324 240 456.6875 C240.48373752 459.33492979 240.96456287 461.98288561 241.4453125 464.63085938 C242.62011821 471.0891163 243.80579688 477.54530331 245 484 C244.39630081 484.01839432 243.79260162 484.03678864 243.17060852 484.05574036 C214.36483545 484.93847978 185.56624391 485.92504917 156.77987671 487.30966187 C154.1584125 487.43542875 151.53685093 487.55918408 148.91519165 487.68081665 C114.29507268 488.77128256 114.29507268 488.77128256 85 506 C84.29230469 506.59167969 83.58460937 507.18335938 82.85546875 507.79296875 C75.88193672 514.04648026 70.18410282 522.51546301 69.55541992 532.06616211 C69.52813233 533.57381478 69.52557609 535.08204447 69.54296875 536.58984375 C69.54950974 537.44273483 69.55605072 538.29562592 69.56278992 539.17436218 C69.86586794 551.62081635 72.03319942 563.90537976 73.97665405 576.17861938 C74.55291182 579.84001622 75.1112789 583.50414747 75.671875 587.16796875 C76.73854091 594.1216276 77.82030064 601.07284207 78.9087162 608.0231266 C80.20282225 616.28864696 81.48251471 624.55638135 82.76171875 632.82421875 C83.21771597 635.77036656 83.67386619 638.71649065 84.13012695 641.66259766 C84.24290576 642.39087265 84.35568457 643.11914764 84.47188091 643.86949158 C85.15920797 648.30601277 85.8487675 652.74218101 86.54001522 657.17809296 C89.71437772 677.54912272 92.79466197 697.93247046 95.81270218 718.32720947 C99.1026762 740.5585558 102.51546461 762.76503597 106.12319946 784.94750977 C108.77010017 801.22236249 111.31159738 817.50943568 113.76675415 833.81430054 C117.33296491 857.49032648 121.08910331 881.13014488 124.97506332 904.75554276 C125.37052151 907.16026695 125.76533507 909.56509631 126.1600647 911.96994019 C126.78579786 915.77989425 127.41391745 919.58944783 128.04397392 923.39868927 C128.27461059 924.79389459 128.50476545 926.18917966 128.73436165 927.58455658 C129.94786459 934.95255989 131.20894483 942.3115032 132.54931641 949.6574707 C132.90021835 951.5898333 132.90021835 951.5898333 133.25820923 953.56123352 C134.23872007 958.10664977 135.69560926 961.97708058 138 966 C138.43183594 966.75667969 138.86367187 967.51335938 139.30859375 968.29296875 C145.93633878 979.01590582 155.80066349 985.63275028 167.8125 989.375 C179.3512577 991.57134638 191.92564123 989.75520112 203.5234375 988.6796875 C205.0935844 988.53887639 206.66377618 988.39856495 208.23400879 988.25871277 C212.41477882 987.88427979 216.59466989 987.50081448 220.77437592 987.11470413 C223.40006289 986.87268991 226.02595281 986.63300428 228.6519165 986.39401245 C258.4771859 983.67776558 288.26904015 980.71102024 318.03839111 977.43481445 C322.39231099 976.95694111 326.74664789 976.48299682 331.10107422 976.00976562 C340.04086318 975.03788 348.97978905 974.05825958 357.91837311 973.07535934 C360.27465284 972.81665537 362.63105374 972.55908247 364.98748779 972.30178833 C385.29989824 970.09912944 385.29989824 970.09912944 405.5625 967.48828125 C406.314814 967.39021683 407.06712799 967.2921524 407.84223938 967.19111633 C419.98304387 965.38666565 431.61519874 958.83166156 439 949 C452.56076699 928.67102256 453.11702452 910.65153028 449.078125 887.3671875 C448.77291173 885.56347812 448.46863004 883.75961088 448.16522217 881.95559692 C447.36643372 877.21969143 446.55629272 872.48580205 445.74328613 867.75231934 C444.45647669 860.24640857 443.18864172 852.73725105 441.91712952 845.22873688 C441.45640732 842.51154559 440.99387306 839.79466725 440.53112793 837.07781982 C438.61694228 825.81411191 436.79169392 814.54277216 435.14093018 803.23703003 C435.00128845 802.29272125 434.86164673 801.34841248 434.71777344 800.37548828 C434.60157654 799.56959259 434.48537964 798.7636969 434.36566162 797.93338013 C434.07740329 795.92713451 434.07740329 795.92713451 433 794 C434.32052368 793.96241577 434.32052368 793.96241577 435.66772461 793.92407227 C439.02456014 793.82729744 442.38131235 793.72820419 445.73803711 793.62768555 C447.17388348 793.58513133 448.60975533 793.54342617 450.0456543 793.50268555 C452.14379509 793.44299134 454.24181612 793.37994179 456.33984375 793.31640625 C458.21724243 793.26141968 458.21724243 793.26141968 460.13256836 793.20532227 C464.42748776 793.04770944 468.71508428 792.78232126 473.00463867 792.52075195 C480.79653053 792.04914063 488.58780787 791.70821152 496.38877106 791.42998314 C498.68427827 791.34805255 500.97968605 791.26368236 503.27508545 791.17878723 C506.58816824 791.0564038 509.90127906 790.93482896 513.2144165 790.81393433 C540.85681507 789.80373567 568.49332137 788.70782981 596.125 787.4375 C615.62233357 786.54160725 635.11965815 785.70445294 654.625 785 C675.70214405 784.23831674 696.7687276 783.2985834 717.83587646 782.30426025 C738.68215802 781.32041503 759.53025483 780.42180205 780.38549805 779.64648438 C803.93952228 778.75986088 818.77344262 776.2296876 837.6875 761.3125 C838.46931641 760.70019531 839.25113281 760.08789062 840.05664062 759.45703125 C842.37365261 757.64125043 844.6872576 755.82121424 847 754 C848.21472262 753.04541875 849.429556 752.09097844 850.64453125 751.13671875 C852.3224649 749.81841141 854.00019341 748.49984783 855.67724609 747.18041992 C866.31099258 738.81708917 876.99239695 730.51593723 887.75 722.3125 C893.40931955 717.9966065 899.03419319 713.64158681 904.62207031 709.23364258 C909.3978099 705.46721577 914.19631794 701.73070679 919 698 C924.90292313 693.41447807 930.79841864 688.8201868 936.66308594 684.18579102 C939.924705 681.61282986 943.20887241 679.07336383 946.515625 676.55859375 C965.71303561 662.64993029 965.71303561 662.64993029 976 642 C977.10987217 629.26870375 974.36339138 617.44675765 971.58203125 605.09765625 C971.12201666 603.00533753 970.66319246 600.91275678 970.20549011 598.81993103 C969.24747558 594.45498252 968.27914943 590.09250333 967.30249023 585.73168945 C966.06096359 580.18698271 964.83937833 574.63812976 963.62483692 569.0874567 C962.67920188 564.7714684 961.72595669 560.45718973 960.77020836 556.14343071 C960.31778489 554.09997955 959.86692415 552.05618166 959.41776466 550.01201057 C954.27477298 522.16638875 954.27477298 522.16638875 937 501 C931.20747864 497.59838802 926.34791078 495.87068245 919.58886719 495.88647461 C917.96763947 495.88658791 917.96763947 495.88658791 916.31365967 495.88670349 C915.15312073 495.89186478 913.99258179 495.89702606 912.796875 495.90234375 C911.60394836 495.9037587 910.41102173 495.90517365 909.1819458 495.90663147 C905.37127171 495.91222962 901.56065634 495.92478181 897.75 495.9375 C895.16666752 495.94251524 892.58333411 495.9470781 890 495.95117188 C883.66664663 495.96219845 877.33332751 495.97893476 871 496 C888.5546875 464.65234375 888.5546875 464.65234375 890.28320312 461.56591797 C891.4305763 459.51689744 892.57771056 457.46774311 893.72460938 455.41845703 C896.76129828 449.99323639 899.80285423 444.57082048 902.8515625 439.15234375 C903.48320313 438.02828125 904.11484375 436.90421875 904.765625 435.74609375 C905.96983333 433.60331127 907.17547111 431.46133123 908.3828125 429.3203125 C920.38438006 407.94959667 918.54921429 392.92019042 913.14453125 369.546875 C912.63965649 367.31189302 912.13599144 365.07663746 911.63346863 362.84112549 C910.58240563 358.18257519 909.51974203 353.52688177 908.44799805 348.87304688 C907.08167606 342.93764636 905.74035203 336.99694213 904.40713978 331.05402756 C903.37144662 326.44676436 902.3247492 321.8420566 901.27457237 317.23807526 C900.7762197 315.04927094 900.28068838 312.8598221 899.78815651 310.66970062 C894.44221342 285.03046562 894.44221342 285.03046562 877.5 266.0625 C871.04150344 262.04493523 864.77196234 260.70492329 857.22875977 260.68115234 C856.48646622 260.67110672 855.74417267 260.6610611 854.97938538 260.65071106 C852.55006617 260.62006497 850.1208562 260.60289621 847.69140625 260.5859375 C845.99746269 260.56721086 844.30352831 260.54763634 842.60960388 260.5272522 C838.16933625 260.47608295 833.72903842 260.43637618 829.28863525 260.39910889 C824.75029118 260.35897353 820.21207106 260.30792482 815.67382812 260.2578125 C806.78263935 260.16123345 797.89138034 260.0767714 789 260 C789.33888748 259.49904312 789.67777496 258.99808624 790.02693176 258.48194885 C793.61529221 253.17676243 797.20123217 247.86994565 800.78588867 242.56225586 C802.11667266 240.59245188 803.44803453 238.62303817 804.7800293 236.65405273 C811.54746422 226.64946438 818.28811654 216.63452392 824.81820679 206.47305298 C828.58767966 200.61382207 832.42608093 194.80182998 836.27734375 188.99609375 C837.54492788 187.08268627 838.81250597 185.16927479 840.08007812 183.25585938 C842.02201584 180.32529883 843.96531615 177.3956812 845.91235352 174.46850586 C847.82980821 171.58457965 849.74153293 168.69692487 851.65234375 165.80859375 C852.23153061 164.94076767 852.81071747 164.07294159 853.40745544 163.17881775 C860.7587343 152.04063793 865.83620055 141.64578277 863.48794556 128.03125 C862.7530784 124.73347987 861.94858851 121.46126867 861.11328125 118.1875 C860.81439499 116.97916504 860.51550873 115.77083008 860.20756531 114.52587891 C859.41398873 111.3282302 858.61020584 108.13338128 857.80157471 104.93951416 C856.99660525 101.74726226 856.20744182 98.55110054 855.41601562 95.35546875 C852.77729663 84.74102944 850.09942564 74.13432635 847.25 63.57421875 C846.97613213 62.5312262 846.97613213 62.5312262 846.69673157 61.46716309 C844.01364691 51.74167745 838.35786778 43.66975504 830 38 C822.3364753 33.80239099 815.54342342 32.8508401 806.92687511 32.86577892 C806.00671575 32.86342669 805.08655639 32.86107446 804.13851342 32.85865095 C801.03839068 32.85196515 797.93830989 32.85241905 794.83818054 32.85282898 C792.59979956 32.84953012 790.36141917 32.8458045 788.12303954 32.8416875 C781.95872573 32.83166232 775.79442166 32.82794989 769.63010085 32.82529819 C763.66898549 32.82179723 757.70787689 32.8136502 751.74676612 32.80575425 C735.77635818 32.7849161 719.8059484 32.77444174 703.83553004 32.76562465 C696.28156301 32.76141795 688.72759677 32.75619605 681.17363041 32.75094012 C655.31862708 32.73305205 629.46362352 32.71805501 603.60861492 32.71061993 C601.98566057 32.71014517 600.36270622 32.70966928 598.73975186 32.70919226 C597.53249124 32.7088377 597.53249124 32.7088377 596.30084152 32.70847597 C592.22310333 32.70727477 588.14536514 32.70605932 584.06762695 32.70483398 C583.25838787 32.70459383 582.4491488 32.70435368 581.61538732 32.70410626 C555.36821666 32.69621043 529.12109114 32.67277167 502.8739402 32.64027804 C475.12737548 32.6059908 447.38083719 32.58626991 419.63425094 32.58297569 C416.58921896 32.58255814 413.544187 32.58207858 410.49915504 32.58155251 C409.74937622 32.58142931 408.99959739 32.58130612 408.227098 32.5811792 C396.15504584 32.57884603 384.08304609 32.56317981 372.01101262 32.54271066 C359.88074145 32.52246877 347.75053333 32.51696763 335.6202484 32.52648129 C329.04718048 32.53124234 322.47424929 32.52905764 315.90120125 32.50971985 C309.8863932 32.49217675 303.87188099 32.49301383 297.85707019 32.50861714 C295.67875705 32.51100667 293.50042391 32.50660054 291.32214149 32.49478849 C288.36461555 32.4797416 285.40814765 32.48929258 282.45064831 32.50501537 C281.60193408 32.49479317 280.75321985 32.48457096 279.87878701 32.47403899 C270.94736232 32.5779008 264.74013057 36.21906804 259.07177734 43.00146484 Z " fill="#FEFEFE" transform="translate(0,0)"/>
<path d="M0 0 C167.64 0 335.28 0 508 0 C523.82784889 62.25620563 523.82784889 62.25620563 522.06396484 65.97167969 C521.61746582 66.61524414 521.1709668 67.25880859 520.7109375 67.921875 C520.19394287 68.68121338 519.67694824 69.44055176 519.14428711 70.22290039 C518.56042236 71.05684326 517.97655762 71.89078613 517.375 72.75 C516.07087052 74.65964833 514.76753753 76.56984075 513.46484375 78.48046875 C512.38759033 80.04933838 512.38759033 80.04933838 511.28857422 81.64990234 C507.57287951 87.07443635 503.93734202 92.55286083 500.29373169 98.02593994 C498.90991273 100.10392591 497.52428924 102.18070003 496.13842773 104.25732422 C490.78416293 112.28547004 485.45730234 120.33114624 480.15625 128.39453125 C479.27719749 129.73158867 479.27719749 129.73158867 478.38038635 131.09565735 C477.17660333 132.92679057 475.9728325 134.75793181 474.76907349 136.58908081 C463.85266771 153.19350568 452.82929482 169.7192058 441.68942261 186.17449951 C432.52437689 199.71708546 423.47581162 213.331335 414.5 227 C403.68504504 243.46748484 392.73708387 259.83917171 381.69702148 276.15649414 C375.73287227 284.97346983 369.78558323 293.80062877 363.890625 302.6640625 C363.31221359 303.5335704 362.73380219 304.40307831 362.13786316 305.29893494 C359.42119569 309.38468945 356.70794307 313.472664 353.99926758 317.5637207 C348.82314409 325.36609406 343.55719998 333.09074176 338.16015625 340.7421875 C330.65185469 351.39705877 323.50249239 362.27565757 316.375 373.1875 C309.25824207 384.08162853 302.12216744 394.9312454 294.55810547 405.52101135 C287.90406752 414.88038386 281.66760934 424.52092135 275.375 434.125 C273.49589855 436.98735221 271.61597177 439.84916094 269.73590088 442.71087646 C268.52443242 444.55494032 267.31328404 446.3992145 266.10247803 448.24371338 C261.10455695 455.85351531 256.06223828 463.43289269 251 471 C260.93281998 471.05697602 270.84448496 470.92127689 280.77264404 470.62960815 C283.14085255 470.56020374 285.50912935 470.49375013 287.87744141 470.42797852 C294.6002111 470.24076498 301.32283176 470.04844249 308.04541016 469.85449219 C312.98851927 469.71227689 317.93170595 469.57313708 322.875 469.4375 C323.66997894 469.41568665 324.46495789 469.39387329 325.2840271 469.37139893 C338.19138058 469.02295846 351.08759264 468.87715469 364 469 C364.26699707 468.2795752 364.53399414 467.55915039 364.80908203 466.81689453 C366.00913599 463.97839051 367.411393 461.53421883 369.0546875 458.9296875 C369.663125 457.96095703 370.2715625 456.99222656 370.8984375 455.99414062 C371.55070312 454.96482422 372.20296875 453.93550781 372.875 452.875 C373.55046875 451.80185547 374.2259375 450.72871094 374.921875 449.62304688 C376.94380892 446.41274991 378.97116861 443.20594121 381 440 C382.04443911 438.34646044 383.08872594 436.69282469 384.1328125 435.0390625 C385.56734159 432.76752318 387.00234608 430.4962926 388.43896484 428.22607422 C392.4830884 421.83218702 396.493896 415.41776141 400.5 409 C407.439778 397.8838701 414.42949306 386.80011517 421.43847656 375.72753906 C429.4195489 363.11647344 437.34455436 350.47101362 445.24584961 337.80981445 C447.4958786 334.20569703 449.74814104 330.60297434 452 327 C418.34 326.505 418.34 326.505 384 326 C385.4725085 322.31872874 386.41417404 320.15578086 388.65234375 317.13671875 C389.17546143 316.42362549 389.6985791 315.71053223 390.23754883 314.97583008 C390.79853271 314.22068115 391.3595166 313.46553223 391.9375 312.6875 C393.12905186 311.06095538 394.31913267 309.43333219 395.5078125 307.8046875 C396.10110352 306.99225586 396.69439453 306.17982422 397.30566406 305.34277344 C399.696743 302.03660722 402.01349341 298.6830923 404.3125 295.3125 C408.73885205 288.83164012 413.20259987 282.37800638 417.6875 275.9375 C418.36151855 274.9693335 419.03553711 274.00116699 419.72998047 273.00366211 C421.1160776 271.01292799 422.50230964 269.02228779 423.88867188 267.03173828 C427.40639672 261.98050018 430.92199392 256.92778243 434.4375 251.875 C435.37565552 250.52716431 435.37565552 250.52716431 436.33276367 249.15209961 C436.9435376 248.27432861 437.55431152 247.39655762 438.18359375 246.4921875 C439.0849279 245.25983871 439.0849279 245.25983871 440.00447083 244.00259399 C442.0906379 241.03999602 442.0906379 241.03999602 443.50305176 237.66453552 C445.51579317 233.7100337 447.29553833 230.53921578 451 228 C458.57606107 225.59499544 467.01393094 226.4921785 474.84765625 226.73046875 C477.18886702 226.75473637 479.53014413 226.77323148 481.8714447 226.78620911 C488.01350395 226.83568507 494.1515223 226.9632282 500.29199219 227.10736084 C506.56585014 227.24070673 512.84036572 227.2997962 519.11523438 227.36523438 C531.41192515 227.5043695 543.70562571 227.72603345 556 228 C556.1363193 228.56908427 556.27263861 229.13816854 556.4130888 229.7244978 C558.14296155 236.94545889 559.87392885 244.16615725 561.60546875 251.38671875 C561.8809725 252.53565802 562.15647625 253.68459728 562.4403286 254.86835289 C565.47203766 267.50852594 568.509141 280.1469225 571.61328125 292.76953125 C572.29618964 295.56306255 572.97825603 298.35679765 573.65991211 301.15063477 C574.11492298 303.00659569 574.57353675 304.86167544 575.03491211 306.71606445 C575.73728337 309.54413822 576.42658431 312.37511709 577.11328125 315.20703125 C577.42547356 316.4423333 577.42547356 316.4423333 577.74397278 317.70259094 C579.29247639 324.17724188 578.75043832 328.02963456 575.515625 333.9296875 C574.99959717 334.87739014 574.48356934 335.82509277 573.9519043 336.80151367 C573.39027588 337.81576416 572.82864746 338.83001465 572.25 339.875 C571.37371948 341.47468628 571.37371948 341.47468628 570.47973633 343.10668945 C566.08106431 351.11141084 561.5971699 359.06743817 557.08447266 367.00830078 C552.70463788 374.72279728 548.40335786 382.47898721 544.125 390.25 C543.44427416 391.48585064 542.76352868 392.72169047 542.08276367 393.95751953 C541.06089667 395.81273025 540.03906662 397.66796127 539.01734924 399.52325439 C530.17697691 415.57445813 521.27497269 431.58738362 512.1875 447.5 C511.83848633 448.11167023 511.48947266 448.72334045 511.12988281 449.35354614 C505.35558081 459.46662879 505.35558081 459.46662879 503 463 C528.16832886 463.10679863 553.31665258 463.10076209 578.47607422 462.35571289 C590.98617322 461.99295973 603.48496553 461.94492042 616 462 C617.90419646 470.75463803 619.80815883 479.50932694 621.71183491 488.26407814 C622.59610829 492.3306988 623.48045768 496.39730289 624.36499023 500.46386719 C625.22106008 504.39959081 626.07691793 508.33536048 626.93263817 512.27116013 C627.25664139 513.76120977 627.58071678 515.25124372 627.90487099 516.74126053 C628.05939421 517.45156796 628.21391743 518.16187538 628.37312317 518.89370728 C628.52482059 519.59102148 628.676518 520.28833569 628.83281231 521.00678062 C629.27295184 523.03284266 629.71132716 525.05928067 630.14956665 527.08575439 C630.72075219 529.7244306 631.30175141 532.36069902 631.88925171 534.99578857 C632.16451691 536.24418518 632.4397821 537.49258179 632.72338867 538.77880859 C632.96957443 539.8832431 633.21576019 540.98767761 633.46940613 542.12557983 C634 545 634 545 634 549 C622.23546432 550.06909092 610.45356694 550.46769012 598.65234375 550.90234375 C596.45870757 550.98492558 594.26507877 551.06770381 592.07145691 551.15066528 C586.233757 551.37071185 580.3959373 551.58740711 574.55808258 551.80330276 C570.92107596 551.93810876 567.28410982 552.07395833 563.64715576 552.21017456 C539.39211763 553.11858177 515.13709297 554.02629393 490.87768555 554.81103516 C489.05765336 554.87016202 487.23762118 554.92928943 485.41758919 554.98842239 C483.71623026 555.04339631 482.01485636 555.09790743 480.31347466 555.15217209 C462.17687254 555.7321432 444.04565108 556.41822376 425.91464806 557.14882088 C394.59503174 558.40981111 363.2729535 559.6001348 331.94921875 560.75390625 C330.94699532 560.79082777 329.94477188 560.8277493 328.91217804 560.86578965 C316.61255076 561.31877125 304.3128619 561.77006671 292.01314735 562.22067195 C281.59971589 562.60222241 271.18633369 562.98510966 260.7729528 563.36803746 C218.51565875 564.92182051 176.25813039 566.46911689 134 568 C124.06242547 511.03323213 124.06242547 511.03323213 119.875 484.25 C119.72529755 483.30210602 119.57559509 482.35421204 119.4213562 481.37759399 C119.00217189 478.71606053 118.58960718 476.05359924 118.1796875 473.390625 C118.05830917 472.62133163 117.93693085 471.85203827 117.81187439 471.05943298 C116.07222434 459.56123238 116.07222434 459.56123238 119.421875 454.8203125 C119.94652344 454.06492187 120.47117187 453.30953125 121.01171875 452.53125 C121.58535156 451.7371875 122.15898437 450.943125 122.75 450.125 C123.33910156 449.28710938 123.92820312 448.44921875 124.53515625 447.5859375 C128.73123255 441.6557226 133.07475402 435.83878116 137.47753906 430.06103516 C141.32425232 424.98624547 144.93495602 419.77558765 148.5 414.5 C152.98072059 407.86938497 157.62847475 401.42123496 162.48046875 395.05859375 C166.32465381 389.98346229 169.93550887 384.77449423 173.5 379.5 C178.0067142 372.83405585 182.67153077 366.3368901 187.53979492 359.93115234 C193.22719234 352.42886831 198.6097089 344.71708794 204 337 C206.31 333.7 208.62 330.4 211 327 C137.74 326.505 137.74 326.505 63 326 C61.17611561 315.66465511 59.41204166 305.41864575 58.02734375 295.03125 C57.85876358 293.78605591 57.69018341 292.54086182 57.51649475 291.25793457 C57.16456789 288.65345741 56.81427154 286.04875943 56.46557617 283.44384766 C55.93852001 279.50761774 55.40621668 275.57212476 54.87304688 271.63671875 C53.89905169 264.42659351 52.941477 257.21444249 52 250 C51.87957336 249.07896484 51.75914673 248.15792969 51.6350708 247.20898438 C51.02344934 242.4781651 50.47227664 237.74723672 50 233 C49.89308838 232.09411133 49.78617676 231.18822266 49.67602539 230.25488281 C49.28855413 224.88089822 50.75545248 222.10976248 54.11401367 218.1809082 C54.69513916 217.5437085 55.27626465 216.90650879 55.875 216.25 C57.07830458 214.85414049 58.28011125 213.45698839 59.48046875 212.05859375 C60.07907715 211.37394043 60.67768555 210.68928711 61.29443359 209.98388672 C63.70680039 207.17786144 65.95598637 204.26299666 68.1875 201.3125 C68.99858656 200.24991499 69.80978365 199.18741434 70.62109375 198.125 C71.40613281 197.09375 72.19117188 196.0625 73 195 C80.35181398 185.40961371 87.76131257 175.86495073 95.18554688 166.33056641 C98.12513338 162.55482734 101.06247715 158.77734465 104 155 C105.16665539 153.49999123 106.33332207 151.99999124 107.5 150.5 C108.0775 149.7575 108.655 149.015 109.25 148.25 C114.5 141.5 114.5 141.5 116.25097656 139.2487793 C117.41443312 137.75288338 118.57784478 136.25695255 119.74121094 134.76098633 C122.70661998 130.94790224 125.67287262 127.13547936 128.640625 123.32421875 C129.84381405 121.77869569 131.04693971 120.23312329 132.25 118.6875 C132.83346191 117.93791016 133.41692383 117.18832031 134.01806641 116.41601562 C138.21091887 111.02503568 142.37763458 105.61473292 146.5234375 100.1875 C149.96793738 95.75420046 153.49286585 91.38391769 157 87 C110.14 86.67 63.28 86.34 15 86 C5.66006721 36.96535286 5.66006721 36.96535286 3.40576172 23.96142578 C2.97479778 21.4798825 2.5362828 18.9997307 2.09765625 16.51953125 C1.81468154 14.90111551 1.53210932 13.28262932 1.25 11.6640625 C1.12197998 10.94151276 0.99395996 10.21896301 0.86206055 9.47451782 C0.3054749 6.23713288 0 3.30096925 0 0 Z " fill="#FEFEFE" transform="translate(301,74)"/>
<path d="M0 0 C1.75173228 -0.01240851 3.50343737 -0.02980552 5.25506592 -0.05255127 C7.69039331 -0.08243891 10.12502634 -0.09231923 12.56051636 -0.09695435 C13.27026611 -0.10925583 13.98001587 -0.12155731 14.71127319 -0.13423157 C21.91251423 -0.10274035 28.04437756 2.0437995 33.47067261 6.85617065 C34.18739136 7.46718628 34.90411011 8.0782019 35.64254761 8.70773315 C40.70335134 14.85299483 42.41624702 22.2204133 43.60836792 29.9303894 C43.76191238 30.85761307 43.91545685 31.78483673 44.07365417 32.74015808 C44.57702625 35.79788594 45.06294149 38.85811498 45.54879761 41.91867065 C45.90398604 44.0978824 46.26027151 46.27691558 46.61758423 48.45578003 C47.55911098 54.21543192 48.48592476 59.97735697 49.40957642 65.73989868 C50.32109242 71.41156483 51.24592555 77.0810531 52.16989136 82.7507019 C53.64520431 91.81416927 55.11344723 100.87875387 56.57589722 109.94430542 C61.7231603 141.84747361 66.95733879 173.73560806 72.27926636 205.6100769 C72.45915265 206.68751514 72.45915265 206.68751514 72.64267302 207.7867198 C74.8605217 221.06985603 77.08064499 234.3526122 79.30257136 247.63506693 C80.54733513 255.07616193 81.79117088 262.51741069 83.03322178 269.95895904 C83.72906693 274.12756293 84.42635598 278.29592168 85.12479675 282.46409142 C85.65602972 285.63696509 86.18513234 288.81019412 86.71456909 291.98336792 C86.9041217 293.111922 87.09367432 294.24047607 87.28897095 295.40322876 C88.22116397 301.00333696 89.06748891 306.59148508 89.72067261 312.23117065 C92.69067261 312.23117065 95.66067261 312.23117065 98.72067261 312.23117065 C98.72067261 312.56117065 98.72067261 312.89117065 98.72067261 313.23117065 C95.75067261 313.23117065 92.78067261 313.23117065 89.72067261 313.23117065 C90.01707642 314.35386353 90.31348022 315.4765564 90.61886597 316.63327026 C91.7878944 321.31933179 92.59149214 326.03024886 93.34957886 330.7975769 C93.50007187 331.72515808 93.65056488 332.65273926 93.80561829 333.60842896 C94.3015379 336.66963776 94.79258331 339.73160342 95.28317261 342.79367065 C95.99166215 347.19489738 96.70178908 351.59585915 97.41207886 355.99679565 C97.59654572 357.14199173 97.78101257 358.28718781 97.97106934 359.46708679 C99.36163237 368.0767707 100.79817134 376.67817051 102.24801636 385.27804565 C102.87011232 388.99177463 103.49126423 392.70566006 104.11199951 396.4196167 C104.51485535 398.81822984 104.92099634 401.21629374 105.33056641 403.61376953 C105.90701755 406.99131648 106.47126419 410.37070947 107.03317261 413.7507019 C107.20465317 414.73637146 107.37613373 415.72204102 107.55281067 416.73757935 C110.46139874 434.48817728 107.73795811 450.01754178 97.72067261 465.23117065 C92.69049198 471.87064124 87.09552208 477.29336523 79.72067261 481.23117065 C79.17811829 481.53447296 78.63556396 481.83777527 78.0765686 482.15026855 C70.60992443 485.92237603 62.6424311 486.70059963 54.45504761 487.73117065 C52.85565751 487.94202727 51.25635484 488.15354801 49.65713501 488.36569214 C33.25471625 490.51411055 16.80943008 492.28221487 0.35567093 493.98386383 C-3.75883275 494.41050767 -7.87267473 494.84345151 -11.98660278 495.27560425 C-17.71805883 495.87710721 -23.44974715 496.47630229 -29.18175983 497.07247734 C-37.26173961 497.9130223 -45.33968291 498.77051488 -53.41604614 499.64523315 C-76.27225753 502.11030669 -99.1523105 504.28253321 -122.04860306 506.33712006 C-124.31226394 506.54100788 -126.57570961 506.74714469 -128.83911133 506.95388794 C-132.42599076 507.28099631 -136.013453 507.60083059 -139.60145187 507.91541481 C-141.54715751 508.08739606 -143.49231377 508.26555864 -145.43743896 508.44398499 C-163.85120542 510.03318474 -180.07241585 510.23537851 -195.27932739 498.23117065 C-207.61999773 486.88197298 -210.87189001 472.22595455 -213.29495239 456.2350769 C-213.4713324 455.10577255 -213.6477124 453.9764682 -213.82943726 452.8129425 C-214.4017608 449.14071068 -214.96550303 445.46721608 -215.52932739 441.79367065 C-215.9303459 439.21218562 -216.33204672 436.6308065 -216.73440552 434.04953003 C-217.54282159 428.86061275 -218.34859617 423.67129658 -219.15237427 418.48165894 C-220.5313131 409.59227245 -221.94422584 400.7084477 -223.36471558 391.82562256 C-224.07550381 387.37783356 -224.78278602 382.92948705 -225.49026489 378.48117065 C-225.63412628 377.57676743 -225.77798767 376.6723642 -225.9262085 375.74055481 C-226.37734482 372.90410879 -226.82835275 370.06764238 -227.27932739 367.23117065 C-227.4366333 366.24197632 -227.59393921 365.25278198 -227.75601196 364.23361206 C-237.72403939 301.53479419 -247.45062141 238.80001997 -256.78079224 176.00305176 C-260.83246467 148.73644838 -264.99565641 121.48968768 -269.29763794 94.26144409 C-269.49344955 93.02037399 -269.68926117 91.77930389 -269.89100647 90.50062561 C-270.25040964 88.2251169 -270.61102985 85.94979989 -270.97319031 83.67472839 C-276.66522704 47.68427576 -276.66522704 47.68427576 -266.27932739 33.23117065 C-256.74920824 21.48760447 -242.6123871 11.15219832 -227.36868286 8.77780151 C-223.98421982 8.48015658 -220.61158205 8.30764635 -217.21682739 8.16867065 C-215.8533163 8.10041771 -214.48987467 8.03076689 -213.12649536 7.95993042 C-208.90606302 7.74669789 -204.68470063 7.55951118 -200.46298218 7.37374878 C-196.20602356 7.18310337 -191.94961933 6.98122427 -187.69316959 6.77957821 C-174.1940547 6.14026379 -160.69429997 5.5150373 -147.19338989 4.9147644 C-146.52243097 4.88482328 -145.85147205 4.85488216 -145.16018105 4.82403374 C-137.93368583 4.50278811 -130.70694071 4.20415089 -123.47756958 3.95431519 C-122.24533661 3.91153946 -121.01310364 3.86876373 -119.74353027 3.82469177 C-117.44044823 3.74662671 -115.1372476 3.67195263 -112.83392334 3.60139465 C-107.56668852 3.42475258 -102.49645865 3.01542734 -97.27932739 2.23117065 C-94.65879954 2.09898594 -92.05713424 2.00113998 -89.43557739 1.94992065 C-88.3119857 1.92278236 -88.3119857 1.92278236 -87.16569519 1.89509583 C-84.70364654 1.83649475 -82.24151187 1.78372892 -79.77932739 1.73117065 C-78.03314347 1.69127043 -76.28696842 1.6509802 -74.540802 1.61032104 C-71.82979296 1.54720109 -69.11878139 1.48436171 -66.4077301 1.42308044 C-60.41754644 1.28651795 -54.42853366 1.12518391 -48.43948364 0.9460144 C-32.29600747 0.46819049 -16.15068669 0.09887395 0 0 Z " fill="#5F6060" transform="translate(343.2793273925781,480.7688293457031)"/>
<path d="M0 0 C1.18368164 -0.02602295 2.36736328 -0.0520459 3.58691406 -0.07885742 C13.20123842 -0.09946158 19.85324556 2.43347038 27.2421875 8.51953125 C32.47051776 14.95335735 33.01184749 23.49759345 34.27783203 31.40087891 C34.51232887 32.82247987 34.74762042 34.24394994 34.98364258 35.66529846 C35.61961073 39.50885809 36.24455914 43.35413655 36.86754847 47.19981813 C37.52249034 51.23043026 38.18779261 55.25933132 38.85202026 59.28842163 C40.10803732 66.91675857 41.35505589 74.54653709 42.59869754 82.17690027 C44.15079883 91.69728147 45.71384338 101.21586031 47.27734375 110.734375 C47.82476882 114.06723876 48.37213449 117.40011225 48.91940308 120.73300171 C49.05197348 121.5403367 49.18454389 122.34767169 49.32113159 123.17947137 C50.23487309 128.74606093 51.14532227 134.31318287 52.05447388 139.88052368 C52.41563835 142.09012707 52.77687362 144.29971887 53.13813782 146.50930595 C53.36380197 147.89073303 53.58915088 149.27221164 53.81415939 150.65374565 C54.12159001 152.54131497 54.4301672 154.42869744 54.73880005 156.31607056 C54.99704906 157.89943931 54.99704906 157.89943931 55.26051521 159.5147953 C55.58069322 161.38569029 55.92639944 163.25244026 56.30050468 165.11330223 C57.29825063 170.13359878 57.30308366 174.77720275 55.625 179.625 C52.57204866 184.10266197 48.74879077 187.19760396 43.75 189.375 C36.54809291 190.42645443 29.2907983 190.74850304 22.02734375 191.13671875 C20.72226868 191.20786392 19.4171936 191.27900909 18.0725708 191.35231018 C14.39396941 191.55167644 10.71513144 191.74630363 7.03619003 191.93928528 C5.4694869 192.02147615 3.90279833 192.10394515 2.33612442 192.18669128 C-33.80072211 194.09530983 -69.95144788 195.7128298 -106.10287935 197.31603414 C-110.74041167 197.5217224 -115.37790334 197.72829676 -120.01536214 197.93563586 C-128.18330162 198.30081041 -136.35140121 198.66211923 -144.51969147 199.0193615 C-147.27722663 199.14006131 -150.03469254 199.26218785 -152.79210663 199.38562202 C-196.97953597 201.3555476 -196.97953597 201.3555476 -206.6875 194.0625 C-211.77712033 188.72460551 -213.81151064 183.56233436 -214.8203125 176.3515625 C-214.94272812 175.56238434 -215.06514374 174.77320618 -215.19126892 173.96011353 C-215.59925489 171.3085948 -215.98694345 168.65450285 -216.375 166 C-216.66587599 164.08410287 -216.9581563 162.16841852 -217.25170898 160.25292969 C-217.90174078 155.9974748 -218.54345443 151.74086468 -219.18017578 147.48339844 C-220.33371947 139.78977885 -221.52288809 132.10179703 -222.71484375 124.4140625 C-224.549952 112.57114891 -226.37237734 100.72636801 -228.18255234 88.87961769 C-229.36674205 81.12975066 -230.55698362 73.3808953 -231.76286316 65.6343689 C-232.34169954 61.90978451 -232.91480657 58.18433593 -233.48629761 54.45861816 C-233.74095281 52.80692815 -233.99812328 51.15562353 -234.25808716 49.50476074 C-238.05171162 25.39028775 -238.05171162 25.39028775 -232.25 17.375 C-225.21893719 9.80456798 -216.55534362 9.30903202 -206.76855469 8.94189453 C-205.93308168 8.90749079 -205.09760868 8.87308704 -204.23681831 8.83764076 C-201.46529744 8.72428035 -198.69359724 8.61612755 -195.921875 8.5078125 C-193.95840859 8.4281553 -191.99495874 8.3480891 -190.03152466 8.26763916 C-185.85733033 8.09707962 -181.68306429 7.92846309 -177.50872803 7.76141357 C-166.62778223 7.32541842 -155.74743794 6.87485128 -144.8671875 6.421875 C-143.25329573 6.35478647 -143.25329573 6.35478647 -141.60680008 6.28634262 C-123.77349968 5.54313181 -105.94826988 4.70538043 -88.125 3.75 C-85.84375294 3.6286068 -83.56250299 3.50726808 -81.28125 3.38598633 C-78.02970993 3.21285412 -74.77817754 3.03958522 -71.52667236 2.86579895 C-22.73296373 0.2645671 -22.73296373 0.2645671 0 0 Z " fill="#323232" transform="translate(338.25,495.625)"/>
<path d="M0 0 C2.1953212 8.95111626 3.8933058 17.88803599 5.26171875 27 C5.45723831 28.27931396 5.65275787 29.55862793 5.85420227 30.87670898 C6.26313323 33.55519656 6.66866104 36.23416882 7.0715332 38.91357422 C7.58667455 42.33831024 8.10967742 45.76179102 8.63507366 49.18496704 C9.13942736 52.47690341 9.63788151 55.76972309 10.13671875 59.0625 C10.3241716 60.28646484 10.51162445 61.51042969 10.70475769 62.77148438 C10.87526138 63.91037109 11.04576508 65.04925781 11.22143555 66.22265625 C11.37227097 67.22047119 11.52310638 68.21828613 11.67851257 69.24633789 C12.30571903 74.61859979 12.30571903 74.61859979 12 77 C10.27703003 79.11811455 8.80984582 79.85063134 6.13228798 80.34448242 C3.72224197 80.59221278 1.32369804 80.73060464 -1.09643555 80.84375 C-2.02093978 80.89794727 -2.94544401 80.95214455 -3.89796352 81.00798416 C-6.97696475 81.18514069 -10.05665046 81.34257721 -13.13671875 81.5 C-15.30832435 81.6209468 -17.47986301 81.74310109 -19.65133667 81.86639404 C-25.46146311 82.19284165 -31.27237927 82.50232162 -37.08360672 82.80845642 C-43.08158275 83.12724327 -49.07869979 83.46143368 -55.07592773 83.79394531 C-66.69023366 84.43530116 -78.30540861 85.05931505 -89.92102051 85.67651367 C-95.23885165 85.95908956 -100.55649316 86.24502609 -105.87402344 86.53320312 C-118.72023889 87.2289042 -131.56704916 87.91016381 -144.41564941 88.5605011 C-150.15358979 88.8516099 -155.89077824 89.15390764 -161.6275177 89.46780396 C-165.23461373 89.6651264 -168.84189049 89.85901714 -172.44918823 90.0526123 C-174.05077946 90.13943219 -175.65228946 90.22777089 -177.25369263 90.31799316 C-182.16784445 90.59441124 -187.0813285 90.82163289 -192 91 C-192.7965802 91.0322467 -193.5931604 91.06449341 -194.41387939 91.09771729 C-196.88135366 91.1887171 -199.3478296 91.24885721 -201.81640625 91.30078125 C-202.57573959 91.33125046 -203.33507294 91.36171967 -204.11741638 91.39311218 C-207.44486039 91.43338985 -209.48699245 91.40067845 -212.15597534 89.31610107 C-214.3094641 86.61131207 -214.73197456 84.92399147 -215.23266602 81.52319336 C-215.40286758 80.42361801 -215.57306915 79.32404266 -215.74842834 78.19114685 C-215.91523605 77.00271683 -216.08204376 75.8142868 -216.25390625 74.58984375 C-216.44089584 73.35319473 -216.62788544 72.11654572 -216.82054138 70.84242249 C-217.31617713 67.5452017 -217.79750828 64.24653508 -218.27185059 60.94622803 C-218.74738508 57.65972743 -219.24071908 54.37591131 -219.73242188 51.09179688 C-220.48727747 46.04151132 -221.23175517 40.98986092 -221.96923828 35.93701172 C-222.6071566 31.59429165 -223.27147792 27.25803228 -223.97998047 22.92626953 C-224.19967751 21.58164391 -224.19967751 21.58164391 -224.42381287 20.20985413 C-224.69324606 18.57883712 -224.96740909 16.94859152 -225.24720764 15.31932068 C-225.53935282 13.55253673 -225.77656433 11.77678103 -226 10 C-224.27702706 8.27702706 -221.94602962 8.74632214 -219.58959961 8.64282227 C-217.83693283 8.56239685 -217.83693283 8.56239685 -216.04885864 8.48034668 C-214.76300873 8.42624634 -213.47715881 8.372146 -212.15234375 8.31640625 C-210.80791467 8.25654411 -209.4635037 8.19627403 -208.11911011 8.13562012 C-204.48545418 7.97292401 -200.85156202 7.81621545 -197.21759415 7.6606636 C-193.38604858 7.49570624 -189.55473687 7.32547414 -185.72338867 7.15600586 C-176.81590788 6.7632504 -167.90801985 6.38030865 -159 6 C-157.35082581 5.92942383 -157.35082581 5.92942383 -155.66833496 5.85742188 C-147.60331764 5.51269219 -139.53810619 5.1730219 -131.47241211 4.84448242 C-118.92479497 4.33296302 -106.37808172 3.80313847 -93.83171082 3.26200867 C-86.32194451 2.93811241 -78.81207661 2.61659736 -71.30219364 2.29541874 C-65.88844666 2.0637182 -60.47475905 1.83077323 -55.06118774 1.59500122 C-49.9022265 1.37034959 -44.74313302 1.14900093 -39.58393288 0.92990685 C-37.66398792 0.84778926 -35.74409272 0.76449813 -33.82425499 0.67991066 C-22.53958111 0.18344777 -11.29661735 -0.11521327 0 0 Z " fill="#FEFEFE" transform="translate(361,586)"/>
<path d="M0 0 C0 0.99 0 1.98 0 3 C-0.66 3 -1.32 3 -2 3 C-2.68239354 4.99468882 -3.34370484 6.99657266 -4 9 C-4.26425781 9.75023437 -4.52851562 10.50046875 -4.80078125 11.2734375 C-5.20876953 12.49933594 -5.20876953 12.49933594 -5.625 13.75 C-5.88539062 14.50796875 -6.14578125 15.2659375 -6.4140625 16.046875 C-8.31194743 25.61221505 -6.21047967 35.27174808 -4.6484375 44.75 C-4.3949057 46.32548421 -4.14212982 47.90109023 -3.89004517 49.47680664 C-3.34621514 52.86757522 -2.79774678 56.25754763 -2.24560547 59.64697266 C-1.35746026 65.10059465 -0.48024895 70.55593884 0.39453125 76.01171875 C0.6183806 77.40770546 0.6183806 77.40770546 0.84675217 78.83189392 C1.15207557 80.73619931 1.45735656 82.6405115 1.76259613 84.54483032 C2.23078674 87.4638367 2.69994293 90.38268668 3.16925049 93.30151367 C6.22359938 112.31278422 9.18210104 131.3385762 12.12774658 150.36694336 C13.59733991 159.85974767 15.07138672 169.35186034 16.546875 178.84375 C16.6924094 179.7799971 16.8379438 180.7162442 16.98788834 181.68086243 C20.54685396 204.56777093 24.17376336 227.44378695 27.81103516 250.31835938 C28.35064312 253.71223049 28.8901842 257.10611224 29.4296875 260.5 C29.63446905 261.7880529 29.63446905 261.7880529 29.8433876 263.10212708 C32.23232215 278.13149248 34.60421479 293.1635185 36.97132874 308.19633484 C37.57163566 312.00840235 38.17219101 315.82043064 38.77282715 319.63244629 C39.17505031 322.1853025 39.57727199 324.73815895 39.97949219 327.29101562 C40.17891418 328.55670631 40.37833618 329.822397 40.58380127 331.12644196 C41.56454836 337.35196155 42.54460079 343.57758896 43.52307129 349.8034668 C45.49656438 362.35845498 47.47807516 374.91207652 49.48251343 387.46216583 C50.4848097 393.74248334 51.47286512 400.02480982 52.4493084 406.30919647 C53.05500434 410.18762827 53.67322264 414.06398849 54.2948494 417.93989563 C54.57702221 419.71533711 54.85411406 421.49159555 55.12546921 423.26872253 C57.7445343 441.58940646 57.7445343 441.58940646 67.90234375 456.53515625 C82.85629154 466.97785722 99.54719916 463.95129073 116.6484375 462.56640625 C118.59341115 462.41161409 120.53839326 462.25692826 122.48338318 462.1023407 C128.78138999 461.59872692 135.07821623 461.08114459 141.375 460.5625 C142.44894894 460.47459702 143.52289787 460.38669403 144.62939072 460.29612732 C182.88854402 457.16384336 220.99952815 453.222783 259.09960938 448.5556488 C271.21515448 447.07456709 283.34256264 445.7116813 295.47554016 444.38165283 C296.87619345 444.2280978 298.27684352 444.07451342 299.67749023 443.92089844 C300.35730611 443.84634556 301.03712198 443.77179268 301.73753834 443.69498062 C309.5790566 442.83153808 317.41464636 441.91745475 325.25 441 C325.92329094 440.92224901 326.59658188 440.84449802 327.29027557 440.76439095 C338.98242198 439.40893429 346.60649873 436.39350127 355 428 C353.53316343 440.24808535 345.17932352 451.2490886 335.7421875 458.80859375 C333.52727404 460.35594618 331.38487481 461.72659462 329 463 C328.45744568 463.30330231 327.91489136 463.60660461 327.355896 463.9190979 C319.88925182 467.69120538 311.92175849 468.46942897 303.734375 469.5 C302.1349849 469.71085662 300.53568223 469.92237736 298.9364624 470.13452148 C282.53404364 472.2829399 266.08875747 474.05104422 249.63499832 475.75269318 C245.52049464 476.17933701 241.40665266 476.61228086 237.29272461 477.04443359 C231.56126856 477.64593655 225.82958024 478.24513164 220.09756756 478.84130669 C212.01758779 479.68185164 203.93964449 480.53934423 195.86328125 481.4140625 C173.00706986 483.87913604 150.12701689 486.05136256 127.23072433 488.1059494 C124.96706345 488.30983722 122.70361778 488.51597403 120.44021606 488.72271729 C116.85333663 489.04982565 113.26587439 489.36965994 109.67787552 489.68424416 C107.73216988 489.8562254 105.78701362 490.03438799 103.84188843 490.21281433 C85.42812197 491.80201409 69.20691154 492.00420786 54 480 C41.65932967 468.65080233 38.40743738 453.9947839 35.984375 438.00390625 C35.807995 436.8746019 35.63161499 435.74529755 35.44989014 434.58177185 C34.87756659 430.90954003 34.31382437 427.23604542 33.75 423.5625 C33.34898149 420.98101497 32.94728067 418.39963584 32.54492188 415.81835938 C31.73650581 410.62944209 30.93073122 405.44012592 30.12695312 400.25048828 C28.74801429 391.36110179 27.33510155 382.47727705 25.91461182 373.5944519 C25.20382359 369.1466629 24.49654137 364.6983164 23.7890625 360.25 C23.64520111 359.34559677 23.50133972 358.44119354 23.3531189 357.50938416 C22.90198258 354.67293814 22.45097465 351.83647173 22 349 C21.84269409 348.01080566 21.68538818 347.02161133 21.52331543 346.00244141 C11.555288 283.30362353 1.82870598 220.56884932 -7.50146484 157.7718811 C-11.55313728 130.50527772 -15.71632902 103.25851703 -20.01831055 76.03027344 C-20.21412216 74.78920334 -20.40993378 73.54813324 -20.61167908 72.26945496 C-20.97108225 69.99394625 -21.33170245 67.71862924 -21.69386292 65.44355774 C-27.40015456 29.36297207 -27.40015456 29.36297207 -17 15 C-12.07241808 9.03821162 -6.51679906 4.1531436 0 0 Z " fill="#303030" transform="translate(94,499)"/>
<path d="M0 0 C4.32283049 0.17518233 8.64734683 0.25180914 12.97271729 0.33721924 C21.43179672 0.51855242 29.88261959 0.80789021 38.33599854 1.16729736 C37.23898026 2.90173418 36.14055928 4.63528384 35.04156494 6.36846924 C34.43003571 7.33393677 33.81850647 8.2994043 33.18844604 9.29412842 C30.47645924 13.50045342 27.60493118 17.58500869 24.71099854 21.66729736 C20.08045444 28.24010088 15.48794574 34.83520258 10.96099854 41.47979736 C6.12693082 48.57115031 1.24417065 55.62703955 -3.66400146 62.66729736 C-8.52890949 69.64610315 -13.37085913 76.63899932 -18.16400146 83.66729736 C-23.67749271 91.75139574 -29.25825476 99.78741755 -34.85223389 107.815979 C-40.04097305 115.26494776 -45.19693037 122.7355723 -50.33001709 130.22296143 C-51.78855636 132.34884113 -53.24947624 134.47307092 -54.71087646 136.59698486 C-55.2151416 137.32989746 -55.71940674 138.06281006 -56.23895264 138.81793213 C-57.20516363 140.2221334 -58.17146694 141.62627117 -59.13787842 143.03033447 C-60.99627547 145.73229361 -62.84490303 148.43864972 -64.66400146 151.16729736 C-67.2075263 151.45389939 -69.5068711 151.54587414 -72.0512085 151.50787354 C-73.19281433 151.50853065 -73.19281433 151.50853065 -74.35748291 151.50920105 C-76.87918539 151.50710696 -79.40022729 151.48374737 -81.92181396 151.46026611 C-83.66773109 151.45467235 -85.41365291 151.45040122 -87.15957642 151.44740295 C-91.75957187 151.43593684 -96.3592841 151.40645463 -100.95916748 151.37329102 C-105.65110441 151.34262807 -110.34308701 151.32890571 -115.03509521 151.31378174 C-124.24485521 151.2815865 -133.45440481 151.23036896 -142.66400146 151.16729736 C-141.32172566 148.42910166 -139.91143718 145.97545523 -138.11712646 143.50714111 C-137.60923584 142.80589111 -137.10134521 142.10464111 -136.57806396 141.38214111 C-135.75435303 140.25485596 -135.75435303 140.25485596 -134.91400146 139.10479736 C-134.33907959 138.31331299 -133.76415771 137.52182861 -133.17181396 136.70635986 C-128.44364213 130.20768212 -123.67333471 123.74004481 -118.8973999 117.27642822 C-114.95152035 111.93136642 -111.04522365 106.55945762 -107.16400146 101.16729736 C-102.70379193 94.97075322 -98.20140512 88.80753713 -93.66400146 82.66729736 C-86.92847088 73.5498137 -80.28536509 64.36788967 -73.66400146 55.16729736 C-66.51489279 45.23338677 -59.34513363 35.31818647 -52.03533936 25.50152588 C-51.24631226 24.43696167 -51.24631226 24.43696167 -50.44134521 23.35089111 C-49.83758057 22.59396973 -49.23381592 21.83704834 -48.61175537 21.05718994 C-46.94779014 18.5883561 -45.96791299 16.5545308 -44.86859131 13.83013916 C-36.43693044 -4.55407316 -17.27713755 -0.77433814 0 0 Z " fill="#2F2E2F" transform="translate(641.6640014648438,158.83270263671875)"/>
<path d="M0 0 C3.38959734 3.81329701 4.33144332 7.23381156 5.17333984 12.22998047 C5.38050629 13.43999725 5.58767273 14.65001404 5.80111694 15.896698 C6.02114457 17.22017996 6.24108225 18.54367689 6.4609375 19.8671875 C6.69452479 21.24376352 6.9287177 22.62023689 7.16348267 23.99661255 C7.78233392 27.63357803 8.39373998 31.2717551 9.00335693 34.91027832 C9.84893725 39.94932044 10.70446429 44.98668419 11.55889893 50.02423096 C12.03402149 52.82553192 12.50636524 55.62728139 12.97674561 58.42938232 C14.02174956 64.63615917 15.09358778 70.8345357 16.27832031 77.01660156 C16.47132721 78.02981476 16.66433411 79.04302795 16.8631897 80.08694458 C17.2168447 81.92198909 17.57904886 83.75541829 17.95199585 85.5866394 C18.81271007 90.05081288 19.47511838 93.83096568 18 98.25 C15.49808972 101.50103947 13.90571441 103.00137675 9.92895508 104.09301758 C8.24129028 104.24226685 8.24129028 104.24226685 6.51953125 104.39453125 C5.27236328 104.51376953 4.02519531 104.63300781 2.74023438 104.75585938 C1.44408203 104.85705078 0.14792969 104.95824219 -1.1875 105.0625 C-3.10272461 105.24329102 -3.10272461 105.24329102 -5.05664062 105.42773438 C-24.09680057 107.14085931 -24.09680057 107.14085931 -28.9375 104.875 C-35.23234537 96.86337862 -35.65929047 83.79150645 -37.35546875 73.984375 C-37.66468208 72.21935435 -37.97428455 70.45440183 -38.28425598 68.68951416 C-38.92930889 65.00884398 -39.57010883 61.32746667 -40.20776367 57.64550781 C-41.02391263 52.93456175 -41.85007303 48.22543744 -42.67931652 43.51678085 C-43.31877439 39.87999404 -43.9532812 36.24235704 -44.58626747 32.60443878 C-44.88903126 30.86750376 -45.19324337 29.13082053 -45.49895287 27.39440155 C-45.92509843 24.9691718 -46.34463737 22.54288804 -46.76245117 20.11621094 C-46.88864838 19.40543396 -47.01484558 18.69465698 -47.14486694 17.96234131 C-47.81594175 14.01779261 -48.32467084 10.24805383 -48 6.25 C-45.2491613 2.81145163 -43.29390919 1.0292721 -39 0.25 C-34.80150907 -0.21509771 -30.58712631 -0.49694115 -26.375 -0.8125 C-25.23675781 -0.90337891 -24.09851563 -0.99425781 -22.92578125 -1.08789062 C-4.30245196 -2.50976364 -4.30245196 -2.50976364 0 0 Z " fill="#323232" transform="translate(409,804.75)"/>
<path d="M0 0 C2.55307012 -0.11222958 5.10453706 -0.19336399 7.65911865 -0.26055908 C9.62038696 -0.32811401 9.62038696 -0.32811401 11.62127686 -0.39703369 C15.87375891 0.3108046 17.27251251 1.74905245 19.8583374 5.14178467 C20.809021 7.70965576 20.809021 7.70965576 21.2567749 10.41522217 C21.51007568 11.90022217 21.51007568 11.90022217 21.76849365 13.41522217 C21.92189209 14.43873779 22.07529053 15.46225342 22.2333374 16.51678467 C22.49823975 18.04045654 22.49823975 18.04045654 22.76849365 19.59490967 C23.64836036 25.01488859 24.31297595 29.79850841 22.8583374 35.14178467 C19.75895227 37.20804142 18.72521001 37.45401431 15.15545654 37.71966553 C13.68001877 37.82998611 13.68001877 37.82998611 12.17477417 37.9425354 C5.82045714 38.32429845 -0.53578432 38.62524919 -6.89556885 38.89569092 C-8.40614824 38.9614064 -9.91672248 39.02724036 -11.42729187 39.09318542 C-14.5814386 39.23022749 -17.73566335 39.36526657 -20.88995361 39.4989624 C-24.08703062 39.63466328 -27.28395443 39.77334108 -30.48077393 39.91497803 C-40.69970068 40.36738448 -50.91918104 40.77849363 -61.1416626 41.14178467 C-62.73986847 41.203992 -62.73986847 41.203992 -64.37036133 41.26745605 C-66.94919423 41.36161748 -69.52654464 41.42917678 -72.10650635 41.48162842 C-73.41095703 41.51506348 -74.71540771 41.54849854 -76.05938721 41.58294678 C-79.1416626 41.14178467 -79.1416626 41.14178467 -81.5022583 39.44622803 C-83.35106828 36.84743168 -83.89887797 35.06678478 -84.4072876 31.93084717 C-84.57486572 30.93311279 -84.74244385 29.93537842 -84.9151001 28.90740967 C-85.07236572 27.87100342 -85.22963135 26.83459717 -85.3916626 25.76678467 C-85.56439697 24.73811279 -85.73713135 23.70944092 -85.9151001 22.64959717 C-87.66924207 11.8463101 -87.66924207 11.8463101 -87.1416626 8.14178467 C-85.04241637 5.46920119 -83.80159428 4.28442204 -80.44493103 3.55891418 C-78.91168938 3.49950905 -78.91168938 3.49950905 -77.34747314 3.43890381 C-76.19040863 3.38340363 -75.03334412 3.32790344 -73.84121704 3.27072144 C-72.00993759 3.20689774 -72.00993759 3.20689774 -70.1416626 3.14178467 C-67.69474103 3.01333772 -65.24788332 2.88366904 -62.80108643 2.75286865 C-60.15036714 2.62886746 -57.49962925 2.50699652 -54.84869385 2.38787842 C-53.40823596 2.32210759 -51.9677809 2.2562747 -50.52732849 2.19038391 C-47.52636 2.05366413 -44.52532185 1.9186116 -41.52423096 1.78460693 C-38.4863346 1.64874888 -35.44859083 1.51004047 -32.41094971 1.36859131 C-23.8604439 0.97092274 -15.30977267 0.59970335 -6.75598145 0.27966309 C-4.50369725 0.19374333 -2.25163058 0.10161712 0 0 Z " fill="#FDFDFD" transform="translate(332.14166259765625,521.8582153320313)"/>
<path d="M0 0 C5.29579611 5.29579611 5.97713273 14.8351978 7.25 21.9375 C7.42724609 22.85402344 7.60449219 23.77054688 7.78710938 24.71484375 C8.65223374 29.46467712 9.26153901 34.18293002 9.48828125 39.0078125 C9.52993408 39.88195801 9.57158691 40.75610352 9.61450195 41.65673828 C9.0625 44.0625 9.0625 44.0625 7.00708008 46.31298828 C3.5081706 48.39185283 0.49566961 48.84795074 -3.4765625 49.109375 C-4.55881607 49.20076752 -4.55881607 49.20076752 -5.66293335 49.29400635 C-7.9618072 49.48343735 -10.26173859 49.64778036 -12.5625 49.8125 C-14.08476132 49.93727552 -15.6068994 50.06356421 -17.12890625 50.19140625 C-20.75086203 50.48748107 -24.37324035 50.73480526 -28.00109863 50.94604492 C-29.76840483 51.05233062 -31.53425539 51.18215231 -33.29980469 51.31445312 C-37.91326597 51.53421545 -40.13395701 51.61277437 -44.0234375 48.94921875 C-46.10642926 45.8077271 -46.89949271 43.57458065 -47.5625 39.875 C-47.78808594 38.65296875 -48.01367188 37.4309375 -48.24609375 36.171875 C-48.35679199 35.51380859 -48.46749023 34.85574219 -48.58154297 34.17773438 C-48.96291154 31.91149482 -49.37320252 29.65149396 -49.78515625 27.390625 C-50.06686852 25.80239527 -50.34683968 24.21385566 -50.625 22.625 C-50.75664551 21.88032471 -50.88829102 21.13564941 -51.02392578 20.3684082 C-52.97311108 8.67198473 -52.97311108 8.67198473 -50.09765625 4.203125 C-45.62533109 1.1736637 -41.67684153 1.08568989 -36.375 0.8125 C-35.38790039 0.74369629 -34.40080078 0.67489258 -33.38378906 0.60400391 C-31.43662655 0.46904253 -29.48884931 0.34262411 -27.54052734 0.22558594 C-24.41571659 0.02980901 -21.30371216 -0.26106248 -18.1875 -0.5625 C-4.98577766 -1.59120564 -4.98577766 -1.59120564 0 0 Z " fill="#323232" transform="translate(226.9375,876.9375)"/>
<path d="M0 0 C3.06152431 4.59228646 3.38013207 9.68162942 4.28710938 15.06713867 C4.62001609 17.03306827 4.97003889 18.99607468 5.3203125 20.95898438 C8.17266701 37.58922986 8.17266701 37.58922986 7 42 C4.41249323 45.35699507 2.79342631 46.80012395 -1.34643555 47.84301758 C-2.597229 47.94251709 -3.84802246 48.0420166 -5.13671875 48.14453125 C-6.1559417 48.23380135 -6.1559417 48.23380135 -7.195755 48.32487488 C-9.35854283 48.50860937 -11.52227524 48.66051625 -13.6875 48.8125 C-15.12191156 48.93226388 -16.55616057 49.05399177 -17.99023438 49.17773438 C-21.99087967 49.51286485 -25.99237051 49.76283416 -30 50 C-31.50361084 50.1225415 -31.50361084 50.1225415 -33.03759766 50.24755859 C-37.17604189 50.46847199 -39.59015207 50.18569769 -43.4140625 48.453125 C-47.64527495 44.21893492 -48.05862812 37.54260449 -49.01611328 31.87255859 C-49.37243866 29.76514852 -49.76280194 27.66642624 -50.16015625 25.56640625 C-51.42764861 18.68558762 -52.53647689 12.00400389 -52 5 C-50.12379387 2.49839182 -48.76108697 1.38054348 -46 0 C-43.7121729 -0.29445815 -41.41753395 -0.53660274 -39.12109375 -0.75390625 C-38.43499527 -0.81907944 -37.74889679 -0.88425262 -37.04200745 -0.95140076 C-35.58540124 -1.08864817 -34.12860114 -1.22385075 -32.67163086 -1.35717773 C-30.46992142 -1.55952039 -28.26916272 -1.77047801 -26.06835938 -1.98242188 C-4.86856288 -3.98336963 -4.86856288 -3.98336963 0 0 Z " fill="#323232" transform="translate(294,873)"/>
<path d="M0 0 C12.04228867 -0.57770112 12.04228867 -0.57770112 15.99121094 1.84814453 C20.93681256 6.95947178 21.22601739 14.14238681 22.33105469 20.88720703 C22.5128125 21.93392578 22.69457031 22.98064453 22.88183594 24.05908203 C25.53407169 40.01237982 25.53407169 40.01237982 22.33105469 45.13720703 C14.43063689 52.57289437 -5.53376489 50.3249619 -15.98144531 50.44970703 C-16.70396484 50.46718994 -17.42648438 50.48467285 -18.17089844 50.50268555 C-22.56229538 50.49795797 -25.49157921 50.11109622 -28.79394531 47.13720703 C-32.22081209 40.32341366 -32.94614323 32.93852638 -33.98144531 25.44970703 C-34.15869141 24.23992188 -34.3359375 23.03013672 -34.51855469 21.78369141 C-36.45953811 8.226784 -36.45953811 8.226784 -34.12597656 4.40673828 C-29.69455074 0.43539736 -23.09384941 1.06663051 -17.48144531 0.82470703 C-16.2264624 0.75622559 -14.97147949 0.68774414 -13.6784668 0.6171875 C-9.12000051 0.38242428 -4.55888365 0.22388086 0 0 Z " fill="#323232" transform="translate(191.7939453125,758.86279296875)"/>
<path d="M0 0 C1.4047885 -0.05381559 2.80973537 -0.10374663 4.21484375 -0.1484375 C5.38917969 -0.18839844 6.56351563 -0.22835937 7.7734375 -0.26953125 C10.82797013 0.29847677 12.64391494 0.96543132 14.71655273 3.33374023 C17.30312766 8.10149135 17.75970532 13.74795068 18.58984375 19.0390625 C18.9137207 20.8953125 18.9137207 20.8953125 19.24414062 22.7890625 C22.12130079 39.96068509 22.12130079 39.96068509 19.23413086 44.96264648 C16.03675181 47.99035442 13.2934555 48.1986087 9.08203125 48.43359375 C8.3345462 48.49310715 7.58706116 48.55262054 6.81692505 48.61393738 C4.42977319 48.79823257 2.04176507 48.94987235 -0.34765625 49.1015625 C-1.9311454 49.22126365 -3.51448292 49.3429888 -5.09765625 49.46679688 C-26.37375176 51.07583037 -26.37375176 51.07583037 -31.16015625 49.0390625 C-34.51274088 44.56894966 -35.20651515 39.7142226 -36.22265625 34.2890625 C-36.35945801 33.57218262 -36.49625977 32.85530273 -36.63720703 32.11669922 C-37.07701107 29.78082906 -37.49791565 27.44244818 -37.91015625 25.1015625 C-38.04180176 24.36599121 -38.17344727 23.63041992 -38.30908203 22.87255859 C-38.67229527 20.68105797 -38.96754046 18.49569264 -39.22265625 16.2890625 C-39.31885254 15.50450684 -39.41504883 14.71995117 -39.51416016 13.91162109 C-39.81290174 9.65080822 -39.63156139 7.85222969 -37.05859375 4.30859375 C-32.05233392 0.89443586 -25.69009892 1.22974401 -19.84765625 0.9765625 C-18.59718506 0.90880615 -17.34671387 0.8410498 -16.05834961 0.77124023 C-10.70591019 0.49701395 -5.35125217 0.29854467 0 0 Z " fill="#323232" transform="translate(205.22265625,817.7109375)"/>
<path d="M0 0 C4.47504067 5.9667209 4.83167735 15.35085681 6.0625 22.5625 C6.25263672 23.61244141 6.44277344 24.66238281 6.63867188 25.74414062 C8.81775268 38.52111256 8.81775268 38.52111256 5 44.375 C-2.42102097 51.79602097 -23.1626765 49.66258604 -33.3125 49.9375 C-34.52292969 49.97746094 -35.73335938 50.01742187 -36.98046875 50.05859375 C-41.16892253 49.31455786 -42.56080476 47.84220061 -45.125 44.5 C-46.1640625 41.73046875 -46.1640625 41.73046875 -46.75 38.6875 C-46.97558594 37.55183594 -47.20117188 36.41617188 -47.43359375 35.24609375 C-47.66175781 34.00988281 -47.88992188 32.77367187 -48.125 31.5 C-48.40501688 30.13619576 -48.68763515 28.77292344 -48.97265625 27.41015625 C-51.95911519 12.86012831 -51.95911519 12.86012831 -51.125 6.5 C-48.56381224 3.2526577 -46.93623459 1.71219552 -42.90209961 0.65698242 C-41.70593018 0.55748291 -40.50976074 0.4579834 -39.27734375 0.35546875 C-38.62480118 0.29595535 -37.97225861 0.23644196 -37.29994202 0.17512512 C-35.22196593 -0.0085094 -33.14299125 -0.16035153 -31.0625 -0.3125 C-29.69318754 -0.4322966 -28.32404272 -0.55402586 -26.95507812 -0.67773438 C-5.3234594 -2.55526051 -5.3234594 -2.55526051 0 0 Z " fill="#313132" transform="translate(358.125,866.5)"/>
<path d="M0 0 C2.02381484 2.69383063 2.61414019 4.68447165 3.28515625 7.98046875 C3.51976562 9.12 3.754375 10.25953125 3.99609375 11.43359375 C4.23585938 12.7071875 4.475625 13.98078125 4.72265625 15.29296875 C4.8609082 16.00904297 4.99916016 16.72511719 5.14160156 17.46289062 C5.57463002 19.71698457 5.99547632 21.97293061 6.41015625 24.23046875 C6.54172119 24.93969482 6.67328613 25.6489209 6.80883789 26.37963867 C8.60891462 36.62203894 8.60891462 36.62203894 6.734375 40.15625 C-1.3141313 48.9644973 -18.16083036 47.03929442 -29.46875 47.5625 C-30.96728919 47.60387264 -32.46600435 47.63947563 -33.96484375 47.66796875 C-35.91970703 47.71050781 -35.91970703 47.71050781 -37.9140625 47.75390625 C-41.94724543 47.20115876 -43.52947474 46.27107815 -46.27734375 43.29296875 C-47.31640625 40.7265625 -47.31640625 40.7265625 -47.90234375 37.73046875 C-48.12792969 36.59351563 -48.35351562 35.4565625 -48.5859375 34.28515625 C-48.81988373 32.95503403 -49.05006018 31.62424563 -49.27734375 30.29296875 C-49.41414551 29.51211914 -49.55094727 28.73126953 -49.69189453 27.92675781 C-53.33577929 6.88506927 -53.33577929 6.88506927 -50.41796875 2.49609375 C-46.03295636 -0.57995972 -42.27991436 -0.68117229 -37.02734375 -0.95703125 C-35.57038086 -1.05914917 -35.57038086 -1.05914917 -34.08398438 -1.16333008 C-32.10158787 -1.29901049 -30.11846367 -1.42445456 -28.13476562 -1.53955078 C-25.50778125 -1.69352475 -22.88559224 -1.87885016 -20.26171875 -2.078125 C-4.29578505 -3.21999669 -4.29578505 -3.21999669 0 0 Z " fill="#323232" transform="translate(274.27734375,756.70703125)"/>
<path d="M0 0 C3.06644499 4.25345595 3.88826795 8.5927753 4.9375 13.6875 C5.10668945 14.50186523 5.27587891 15.31623047 5.45019531 16.15527344 C6.02163099 18.9343923 6.57716168 21.71613592 7.125 24.5 C7.30426025 25.40741943 7.48352051 26.31483887 7.66821289 27.24975586 C9.92695409 39.20331886 9.92695409 39.20331886 7.0625 43.5 C3.48201809 47.18579021 0.01264441 47.06396185 -4.88671875 47.4765625 C-5.66634476 47.54410736 -6.44597076 47.61165222 -7.2492218 47.6812439 C-8.90253494 47.82287771 -10.5560413 47.96227104 -12.2097168 48.09960938 C-14.72333373 48.31026521 -17.23560321 48.53365029 -19.74804688 48.7578125 C-21.35670453 48.89401457 -22.96542687 49.02945518 -24.57421875 49.1640625 C-25.3192717 49.23170807 -26.06432465 49.29935364 -26.83195496 49.36904907 C-32.58208683 49.82752138 -37.97841783 50.16118153 -42.86328125 46.70703125 C-45.76848472 42.71818172 -46.453575 39.18091857 -47.25 34.375 C-47.40871582 33.49650391 -47.56743164 32.61800781 -47.73095703 31.71289062 C-48.20178989 29.0414574 -48.63800542 26.36665439 -49.0625 23.6875 C-49.19317871 22.88521973 -49.32385742 22.08293945 -49.45849609 21.25634766 C-51.4380972 8.8104977 -51.4380972 8.8104977 -50.2890625 5.375 C-48.26940082 2.59635718 -46.40118612 1.74430189 -43.06665039 1.18505859 C-41.86000732 1.06984863 -40.65336426 0.95463867 -39.41015625 0.8359375 C-38.42709755 0.74030014 -38.42709755 0.74030014 -37.42417908 0.64273071 C-36.03341427 0.50937973 -34.64224405 0.3802008 -33.25073242 0.25488281 C-31.1627427 0.06591579 -29.07660547 -0.13776201 -26.99023438 -0.34375 C-5.58425773 -2.39325331 -5.58425773 -2.39325331 0 0 Z " fill="#323232" transform="translate(283.0625,813.3125)"/>
<path d="M0 0 C2.69772595 -0.1137158 5.39393173 -0.18781425 8.09326172 -0.25146484 C8.93848389 -0.28957275 9.78370605 -0.32768066 10.65454102 -0.36694336 C14.57822034 -0.4203133 16.80807104 -0.18907959 20.24560547 1.81884766 C23.51686364 6.97244992 24.18322131 12.41074641 25.15576172 18.37353516 C25.47963867 20.15824219 25.47963867 20.15824219 25.81005859 21.97900391 C28.75010255 38.87258982 28.75010255 38.87258982 25.46826172 44.12353516 C20.2078703 49.07449179 11.34764409 48.14097259 4.43212891 48.70043945 C2.5459016 48.8569762 0.66043136 49.02293226 -1.22412109 49.19848633 C-3.94508659 49.45163824 -6.66710377 49.67543359 -9.39111328 49.89306641 C-10.22882263 49.97619583 -11.06653198 50.05932526 -11.92962646 50.14497375 C-17.43693154 50.54132172 -20.26659034 49.8127245 -24.65673828 46.12353516 C-27.31462069 43.46565275 -27.31249457 41.52194677 -27.94580078 37.83056641 C-28.16494141 36.56019531 -28.38408203 35.28982422 -28.60986328 33.98095703 C-28.72007812 33.31636475 -28.83029297 32.65177246 -28.94384766 31.96704102 C-29.27786201 29.95933478 -29.62640397 27.95456723 -29.97705078 25.94970703 C-32.89782761 8.72929367 -32.89782761 8.72929367 -29.65673828 4.12353516 C-21.8363777 -1.09003856 -9.2684265 0.43097076 0 0 Z " fill="#323132" transform="translate(318.65673828125,749.87646484375)"/>
<path d="M0 0 C2.46403612 -0.11034376 4.92524626 -0.18458215 7.39111328 -0.23779297 C8.11395508 -0.26397705 8.83679688 -0.29016113 9.58154297 -0.31713867 C12.96257072 -0.32806349 15.09488898 0.07698593 18.06689453 1.72314453 C20.70335062 4.70180973 21.48367797 7.3309631 22.20361328 11.13720703 C22.37538086 11.99169434 22.54714844 12.84618164 22.72412109 13.7265625 C23.29323931 16.67071313 23.81562708 19.6202865 24.32861328 22.57470703 C24.51037109 23.57308594 24.69212891 24.57146484 24.87939453 25.60009766 C27.38710429 39.93929516 27.38710429 39.93929516 24.89111328 44.57470703 C21.44392579 47.7665473 16.92485018 47.52241163 12.46533203 47.89111328 C11.327752 47.98887306 11.327752 47.98887306 10.16719055 48.08860779 C8.56270128 48.2256396 6.95805588 48.36085359 5.35327148 48.49438477 C2.91038289 48.69810012 0.46812854 48.90840598 -1.97412109 49.11962891 C-3.53593657 49.2521855 -5.09778458 49.3843593 -6.65966797 49.51611328 C-7.38487137 49.57859756 -8.11007477 49.64108185 -8.85725403 49.70545959 C-19.89591811 50.6139257 -19.89591811 50.6139257 -23.98388672 48.44970703 C-28.49018037 44.23679187 -28.79931589 37.93564869 -29.79638672 32.13720703 C-30.07511259 30.6875007 -30.3564574 29.23829596 -30.64013672 27.78955078 C-30.92313206 26.30160042 -31.20440321 24.81332102 -31.48388672 23.32470703 C-31.61561279 22.6321582 -31.74733887 21.93960938 -31.88305664 21.22607422 C-32.24212984 19.19978909 -32.53794197 17.17867442 -32.79638672 15.13720703 C-32.89258301 14.43934082 -32.9887793 13.74147461 -33.08789062 13.02246094 C-33.40309687 9.05309384 -32.97553649 7.36480037 -30.49951172 4.21923828 C-26.01050241 1.08611979 -20.85445579 1.09970187 -15.54638672 0.82470703 C-14.48895264 0.75622559 -13.43151855 0.68774414 -12.34204102 0.6171875 C-8.22966074 0.3696817 -4.11471885 0.20189209 0 0 Z " fill="#323232" transform="translate(329.79638671875,807.86279296875)"/>
<path d="M0 0 C2.43558549 -0.09287447 4.8698514 -0.15428009 7.30664062 -0.20507812 C8.41966553 -0.24967163 8.41966553 -0.24967163 9.55517578 -0.29516602 C13.08404477 -0.33379733 15.25542782 0.00652583 18.33789062 1.77148438 C20.78520935 4.50188847 21.36855763 6.21230306 22.05664062 9.79492188 C22.2809375 10.93574219 22.50523437 12.0765625 22.73632812 13.25195312 C23.08050781 15.16041016 23.08050781 15.16041016 23.43164062 17.10742188 C23.7240951 18.57002582 24.01843157 20.03225446 24.31445312 21.49414062 C24.60534954 22.98987887 24.89443464 24.48597062 25.18164062 25.98242188 C25.32166504 26.68326904 25.46168945 27.38411621 25.60595703 28.10620117 C26.43924062 32.70455051 26.59138607 36.56690905 25.43164062 41.10742188 C23.14147706 44.18700588 21.83552385 45.02046388 18.04345703 45.83691406 C16.70831534 45.96138549 15.37123101 46.06610477 14.03320312 46.15429688 C12.96433365 46.24568939 12.96433365 46.24568939 11.87387085 46.33892822 C9.60246963 46.52874237 7.33001378 46.69311067 5.05664062 46.85742188 C3.53567475 46.98211776 2.01483835 47.10840368 0.49414062 47.23632812 C-16.6100809 48.63353555 -16.6100809 48.63353555 -20.75585938 46.35742188 C-25.06278981 42.31967459 -25.55159483 36.68147036 -26.56835938 31.10742188 C-26.8491199 29.6685242 -27.13039481 28.22972682 -27.41210938 26.79101562 C-27.69582627 25.29278276 -27.97709363 23.79408386 -28.25585938 22.29492188 C-28.38758545 21.59012695 -28.51931152 20.88533203 -28.6550293 20.15917969 C-30.63331253 8.85698778 -30.63331253 8.85698778 -27.81835938 4.23242188 C-21.58628995 -1.65342147 -8.1886479 0.34249098 0 0 Z " fill="#323232" transform="translate(381.568359375,746.892578125)"/>
<path d="M0 0 C12.58870007 -0.63923845 12.58870007 -0.63923845 18.31591797 4.14160156 C21.32458732 9.5072107 21.62684555 16.09747264 21.31591797 22.14160156 C20.05750486 25.21212955 19.0278586 26.01921324 16.31591797 28.14160156 C13.08466153 28.98248215 9.94093629 29.30304412 6.61279297 29.45800781 C5.72261475 29.50030518 4.83243652 29.54260254 3.9152832 29.58618164 C-0.95071302 29.78755909 -5.81687203 29.97219176 -10.68408203 30.14160156 C-11.97499756 30.19477539 -11.97499756 30.19477539 -13.29199219 30.24902344 C-15.6102072 30.33984297 -17.92721215 30.40214065 -20.24658203 30.45410156 C-20.92946289 30.48383057 -21.61234375 30.51355957 -22.31591797 30.54418945 C-25.6517959 30.58418294 -27.6170856 30.17983272 -30.53173828 28.51660156 C-34.76747356 23.84268677 -35.51599987 17.04110766 -35.78173828 10.87597656 C-35.52524777 7.99827815 -34.78520938 6.2695975 -32.99975586 4.00976562 C-30.10143353 1.67155135 -28.38839308 1.53308937 -24.69580078 1.31347656 C-23.52098145 1.23564941 -22.34616211 1.15782227 -21.13574219 1.07763672 C-19.27248291 0.98554932 -19.27248291 0.98554932 -17.37158203 0.89160156 C-15.47738525 0.78211182 -15.47738525 0.78211182 -13.54492188 0.67041016 C-9.03094872 0.42237689 -4.51440072 0.23816194 0 0 Z " fill="#323232" transform="translate(184.68408203125,716.8583984375)"/>
<path d="M0 0 C1.07797852 -0.03879272 1.07797852 -0.03879272 2.17773438 -0.07836914 C5.62379934 -0.09124619 7.63207307 0.30443717 10.609375 2.0859375 C14.84243523 6.6125311 15.38728367 11.71801725 15.84765625 17.7109375 C15.70527015 21.59523022 14.38887413 23.59348402 11.75 26.375 C7.92780335 29.01216406 3.52604417 28.89489963 -0.9609375 29.1484375 C-2.22957138 29.22501083 -2.22957138 29.22501083 -3.52383423 29.3031311 C-5.310536 29.40697152 -7.09753235 29.50584651 -8.88476562 29.60009766 C-11.60988689 29.74917325 -14.33164018 29.9305958 -17.0546875 30.11328125 C-18.79416038 30.21033373 -20.53374261 30.30544957 -22.2734375 30.3984375 C-23.08299896 30.45655609 -23.89256042 30.51467468 -24.72665405 30.57455444 C-30.09125893 30.81144041 -33.02221755 30.00909729 -37.25 26.375 C-40.28605989 21.14041399 -41.60970588 15.45003259 -41.25 9.375 C-38.52058824 4.01029412 -38.52058824 4.01029412 -35.25 2.375 C-23.63531532 0.83186995 -11.71214153 0.20985495 0 0 Z " fill="#323232" transform="translate(256.25,713.625)"/>
<path d="M0 0 C2.18007098 -0.12385226 4.35592831 -0.20678484 6.53857422 -0.26660156 C7.72837891 -0.3065625 8.91818359 -0.34652344 10.14404297 -0.38769531 C14.60743739 0.38972905 16.20099275 1.92367789 19.35107422 5.17089844 C20.71643624 8.07359555 21.01147672 10.99247811 21.35107422 14.17089844 C21.43357422 14.89148438 21.51607422 15.61207031 21.60107422 16.35449219 C21.82404795 20.04052674 21.47445124 21.97760777 19.47607422 25.10839844 C11.88205144 32.4790676 -7.53829879 30.36592454 -17.71142578 30.60839844 C-18.42943359 30.64263916 -19.14744141 30.67687988 -19.88720703 30.7121582 C-23.68107821 30.74428664 -26.11677209 30.18309067 -29.05908203 27.87792969 C-33.71796979 23.00823253 -34.11193242 16.72971862 -33.97705078 10.22167969 C-33.46928943 7.04817127 -31.94197021 5.3290579 -29.64892578 3.17089844 C-27.20074996 1.94681053 -25.27875497 1.86520168 -22.54736328 1.63574219 C-21.50684814 1.5481665 -20.46633301 1.46059082 -19.39428711 1.37036133 C-12.93205759 0.86808155 -6.46821472 0.41730418 0 0 Z " fill="#323232" transform="translate(314.64892578125,708.8291015625)"/>
<path d="M0 0 C2.71389744 -0.11323699 5.42491265 -0.18597604 8.140625 -0.23779297 C8.97013672 -0.26397705 9.79964844 -0.29016113 10.65429688 -0.31713867 C14.58522772 -0.32811211 16.6442632 -0.16245821 20.078125 1.91064453 C23.80205616 5.93079748 24.50005726 9.13609607 25.015625 14.57470703 C25.13679688 15.68716797 25.25796875 16.79962891 25.3828125 17.94580078 C25.08140195 21.91761405 23.94146974 23.37124826 21.140625 26.13720703 C15.09737098 28.65522954 8.62496378 28.85387942 2.140625 29.13720703 C0.79701904 29.19618164 0.79701904 29.19618164 -0.57373047 29.25634766 C-3.64806936 29.37441828 -6.72096125 29.44832562 -9.796875 29.51220703 C-11.30797852 29.56948975 -11.30797852 29.56948975 -12.84960938 29.62792969 C-20.06633654 29.70900291 -20.06633654 29.70900291 -23.92578125 26.92626953 C-27.13738293 22.2937774 -28.16251405 18.77110553 -28.234375 13.13720703 C-28.27691406 11.62126953 -28.27691406 11.62126953 -28.3203125 10.07470703 C-27.70939857 6.18142503 -26.86244004 4.71582671 -23.859375 2.13720703 C-20.72222203 1.22126694 -17.61216205 1.01857785 -14.359375 0.82470703 C-12.97878906 0.72198486 -12.97878906 0.72198486 -11.5703125 0.6171875 C-7.71580002 0.35527495 -3.85877557 0.18516324 0 0 Z " fill="#323232" transform="translate(373.859375,705.86279296875)"/>
<path d="M0 0 C2.5 1.5625 2.5 1.5625 4 4 C4.25 7.625 4.25 7.625 4 11 C3.78306954 13.13106215 3.78306954 13.13106215 5.5 14.75 C7.50667214 17.76000821 7.5084648 19.44074642 7 23 C5.5625 25.875 5.5625 25.875 3 28 C-0.14716633 28.72807579 -2.8479369 28.68986434 -6 28 C-9.0625 25.9375 -9.0625 25.9375 -11 23 C-11.3125 19.4375 -11.3125 19.4375 -11 16 C-10.7018576 12.2236068 -10.7018576 12.2236068 -12 10 C-12.38080215 6.49662019 -12.40245078 4.63721374 -10.5 1.625 C-6.98922596 -0.65700312 -4.07529338 -0.81004807 0 0 Z " fill="#ECEDEC" transform="translate(256,765)"/>
<path d="M0 0 C2.91317442 1.9834379 4.57852831 3.43863895 5.515625 6.91015625 C6.08698911 14.06519322 2.59640987 20.0277235 -1 26 C-1.66 26.66 -2.32 27.32 -3 28 C-4.32 28 -5.64 28 -7 28 C-5.8905928 24.51329166 -4.73662334 21.22515763 -3 18 C-3.721875 18.103125 -4.44375 18.20625 -5.1875 18.3125 C-8 18 -8 18 -10.8125 16.0625 C-13.39476146 12.44733395 -13.67189871 10.42988258 -13.43359375 6.08984375 C-12.80769719 3.07313512 -11.47809096 1.74924068 -9 0 C-5.77509551 -1.61245225 -3.43772273 -0.81573082 0 0 Z " fill="#F0F0F0" transform="translate(321,760)"/>
<path d="M0 0 C-1.44950455 3.7910119 -3.15172566 7.3874638 -5 11 C-3.906875 10.938125 -2.81375 10.87625 -1.6875 10.8125 C2 11 2 11 3.671875 12.23828125 C6.08142374 15.43447678 6.24710328 19.08753141 6 23 C4.23496686 25.92143417 3.04152365 27.47923817 0 29 C-4.08055043 29.55643869 -5.74051119 29.15667249 -9.3125 27 C-12.00879927 24.46021415 -13.02751409 22.02825203 -13.2421875 18.25 C-12.59584438 12.24526389 -9.57549476 5.81914511 -6 1 C-3 0 -3 0 0 0 Z " fill="#EEEFEF" transform="translate(331,817)"/>
<path d="M0 0 C1.98 0 3.96 0 6 0 C7.11378686 4.1581376 8.06036226 8.08505822 8.4375 12.375 C8.623125 13.57125 8.80875 14.7675 9 16 C9.99 16.66 10.98 17.32 12 18 C12 18.99 12 19.98 12 21 C11.34 21 10.68 21 10 21 C10 22.98 10 24.96 10 27 C8.35 27 6.7 27 5 27 C5 25.35 5 23.7 5 22 C3.9790625 22.2475 3.9790625 22.2475 2.9375 22.5 C-0.4164822 23.07089059 -3.60389805 23.06659023 -7 23 C-8.21760043 19.53690981 -7.80744321 17.77694761 -6.34765625 14.453125 C-5.98349609 13.60878906 -5.61933594 12.76445313 -5.24414062 11.89453125 C-4.85419922 11.02183594 -4.46425781 10.14914062 -4.0625 9.25 C-3.67642578 8.36183594 -3.29035156 7.47367188 -2.89257812 6.55859375 C-1.93849057 4.36772604 -0.97405887 2.18204402 0 0 Z " fill="#F1F2F2" transform="translate(196,828)"/>
<path d="M0 0 C0 1.65 0 3.3 0 5 C-3.3 5.33 -6.6 5.66 -10 6 C-10 7.32 -10 8.64 -10 10 C-8.96875 9.896875 -7.9375 9.79375 -6.875 9.6875 C-3 10 -3 10 0.4375 11.9375 C3.43223898 15.51657829 3.85314771 17.29504493 3.51171875 21.83984375 C2.63745366 25.53044369 1.14249107 26.97047452 -2 29 C-4.8360553 29.69186027 -7.16928206 29.73050786 -10 29 C-13 26.625 -13 26.625 -15 24 C-15 23.34 -15 22.68 -15 22 C-13.33388095 21.957279 -11.66617115 21.95936168 -10 22 C-9.67 22.33 -9.34 22.66 -9 23 C-7.00041636 23.04080783 -4.99954746 23.04254356 -3 23 C-2.95745644 21.00045254 -2.95919217 18.99958364 -3 17 C-4.03406673 15.74050951 -4.03406673 15.74050951 -6.28515625 15.90234375 C-8.85677083 15.93489583 -11.42838542 15.96744792 -14 16 C-14.33 11.05 -14.66 6.1 -15 1 C-4.5 0 -4.5 0 0 0 Z " fill="#E8E9E9" transform="translate(269,822)"/>
<path d="M0 0 C3.68386204 0.8062545 5.1556308 2.38804811 7.1953125 5.48046875 C8.5256959 11.64860997 5.73950282 15.51946944 2.5078125 20.5390625 C2.0746875 21.17972656 1.6415625 21.82039062 1.1953125 22.48046875 C4.1653125 22.81046875 7.1353125 23.14046875 10.1953125 23.48046875 C10.5253125 24.80046875 10.8553125 26.12046875 11.1953125 27.48046875 C2.2853125 28.47046875 2.2853125 28.47046875 -6.8046875 29.48046875 C-5.90585331 23.18862945 -5.62183854 21.59380779 -2.2421875 16.85546875 C0.38326438 13.16821441 1.64941921 11.05456175 1.1953125 6.48046875 C-0.4546875 6.15046875 -2.1046875 5.82046875 -3.8046875 5.48046875 C-4.4646875 7.46046875 -5.1246875 9.44046875 -5.8046875 11.48046875 C-7.4546875 11.48046875 -9.1046875 11.48046875 -10.8046875 11.48046875 C-11.1371749 7.90622922 -10.98677078 5.84463531 -9.3671875 2.60546875 C-6.12495336 -0.08321322 -4.12493402 -0.25185241 0 0 Z " fill="#F1F2F2" transform="translate(273.8046875,881.51953125)"/>
<path d="M0 0 C2.1328125 0.4453125 2.1328125 0.4453125 4.7578125 2.5078125 C6.1328125 5.4453125 6.1328125 5.4453125 5.6328125 8.8828125 C4.71670945 12.54153319 4.71670945 12.54153319 7.1328125 15.4453125 C9.1328125 18.4453125 9.1328125 18.4453125 9.1328125 22.1328125 C8.1328125 25.4453125 8.1328125 25.4453125 6.6328125 27.3828125 C2.78255663 29.01917124 -0.76907386 29.37139868 -4.8671875 28.4453125 C-7.25874709 26.64337705 -8.24851721 25.05607103 -9.8671875 22.4453125 C-9.8671875 21.7853125 -9.8671875 21.1253125 -9.8671875 20.4453125 C-8.2171875 20.4453125 -6.5671875 20.4453125 -4.8671875 20.4453125 C-4.5371875 21.4353125 -4.2071875 22.4253125 -3.8671875 23.4453125 C-1.8871875 23.4453125 0.0928125 23.4453125 2.1328125 23.4453125 C2.4628125 21.7953125 2.7928125 20.1453125 3.1328125 18.4453125 C2.3284375 18.2184375 1.5240625 17.9915625 0.6953125 17.7578125 C-0.573125 17.108125 -0.573125 17.108125 -1.8671875 16.4453125 C-2.6796875 13.8203125 -2.6796875 13.8203125 -2.8671875 11.4453125 C-1.5471875 11.1153125 -0.2271875 10.7853125 1.1328125 10.4453125 C0.4728125 8.7953125 -0.1871875 7.1453125 -0.8671875 5.4453125 C-2.1871875 5.4453125 -3.5071875 5.4453125 -4.8671875 5.4453125 C-5.1971875 6.7653125 -5.5271875 8.0853125 -5.8671875 9.4453125 C-7.5171875 9.4453125 -9.1671875 9.4453125 -10.8671875 9.4453125 C-11.21256954 6.33687415 -11.10020208 4.82016205 -9.4296875 2.1328125 C-6.16326629 -0.01824537 -3.85737374 -0.1909591 0 0 Z " fill="#F0F1F1" transform="translate(337.8671875,875.5546875)"/>
<path d="M0 0 C-0.53766337 6.74461265 -1.9210579 12.65804789 -4.0625 19.0625 C-4.34416016 19.92810547 -4.62582031 20.79371094 -4.91601562 21.68554688 C-5.60298435 23.79302719 -6.29770066 25.8975895 -7 28 C-8.65 28 -10.3 28 -12 28 C-11.38334864 22.60607261 -10.12077204 17.71604717 -8.4375 12.5625 C-8.20353516 11.83095703 -7.96957031 11.09941406 -7.72851562 10.34570312 C-7.15732778 8.56219821 -6.57936877 6.78086417 -6 5 C-11.94 5.495 -11.94 5.495 -18 6 C-18 4.35 -18 2.7 -18 1 C-11.96445452 0.30739642 -6.07593562 -0.11251733 0 0 Z " fill="#EEEFEF" transform="translate(195,769)"/>
<path d="M0 0 C1.32 0 2.64 0 4 0 C4 2.31 4 4.62 4 7 C7.3 7 10.6 7 14 7 C14 8.32 14 9.64 14 11 C9.545 11.495 9.545 11.495 5 12 C5.33 14.97 5.66 17.94 6 21 C4.68 21 3.36 21 2 21 C1.67 18.03 1.34 15.06 1 12 C-3.455 12.495 -3.455 12.495 -8 13 C-8 11.68 -8 10.36 -8 9 C-5.36 8.67 -2.72 8.34 0 8 C0 5.36 0 2.72 0 0 Z " fill="#E4E4E5" transform="translate(392,850)"/>
<path d="M0 0 C0.66 0.33 1.32 0.66 2 1 C2.99 0.67 3.98 0.34 5 0 C5 0.66 5 1.32 5 2 C5.804375 2.309375 6.60875 2.61875 7.4375 2.9375 C10 4 10 4 11 5 C11.42875665 8.77305851 11.27952611 10.55076161 9.25 13.8125 C7 16 7 16 5.0625 17.125 C3 17 3 17 0.25 15.125 C-2.41046694 11.42990702 -2.49902488 9.49579894 -2.37109375 5.0859375 C-2 3 -2 3 0 0 Z " fill="#ECEDEC" transform="translate(310,761)"/>
<path d="M0 0 C2.64 0 5.28 0 8 0 C8.6754914 3.54004203 9.33880798 7.08226169 10 10.625 C10.19078125 11.62402344 10.3815625 12.62304688 10.578125 13.65234375 C11.47527136 18.49052593 12.27009288 23.05392418 12 28 C10.35 28 8.7 28 7 28 C6.49494737 25.10496617 5.9957978 22.20912047 5.5 19.3125 C5.35691406 18.49587891 5.21382812 17.67925781 5.06640625 16.83789062 C4.38834038 12.85021752 3.80141608 9.06269596 4 5 C2.35 5 0.7 5 -1 5 C-0.67 3.35 -0.34 1.7 0 0 Z " fill="#EBEBEB" transform="translate(202,887)"/>
<path d="M0 0 C3.86107457 2.57404971 3.94319692 4.61020259 5 9 C6.65 8.67 8.3 8.34 10 8 C10.08226668 4.95613276 9.97608217 2.92824652 9 0 C11.375 -0.1875 11.375 -0.1875 14 0 C16.34168764 3.51253146 16.49623677 4.86469356 16 9 C14.5625 11.875 14.5625 11.875 12 14 C8.85283367 14.72807579 6.1520631 14.68986434 3 14 C-0.0625 11.9375 -0.0625 11.9375 -2 9 C-2.4375 5.3125 -2.4375 5.3125 -2 2 C-1.34 1.34 -0.68 0.68 0 0 Z " fill="#F0F0F0" transform="translate(247,779)"/>
<path d="M0 0 C1.98 0 3.96 0 6 0 C7.91641254 6.20015821 8.00220974 10.58585769 7 17 C4.03 17.33 1.06 17.66 -2 18 C-1.67 15.36 -1.34 12.72 -1 10 C-1.66 9.67 -2.32 9.34 -3 9 C-2.01 6.03 -1.02 3.06 0 0 Z " fill="#EAEAEA" transform="translate(196,828)"/>
<path d="M0 0 C9.23076923 1.26696833 9.23076923 1.26696833 12 2 C13.42662219 4.85324437 13.31033868 6.83454549 13 10 C11.20006226 12.69990662 9.916227 14.5418865 7 16 C3.98736238 16.41081422 1.88544367 16.57293414 -0.7265625 14.8828125 C-2.20110211 13.64587643 -3.60628788 12.32734487 -5 11 C-4.67 9.35 -4.34 7.7 -4 6 C-3.34 6 -2.68 6 -2 6 C-1.67 5.34 -1.34 4.68 -1 4 C-0.34 5.98 0.32 7.96 1 10 C2.66611905 10.042721 4.33382885 10.04063832 6 10 C7.28322547 8.9404123 7.28322547 8.9404123 7.125 6.5 C7.28322547 4.0595877 7.28322547 4.0595877 6 3 C4.00041636 2.95919217 1.99954746 2.95745644 0 3 C0 2.01 0 1.02 0 0 Z " fill="#F3F4F4" transform="translate(324,830)"/>
<path d="M0 0 C1.32 0 2.64 0 4 0 C4 2.31 4 4.62 4 7 C5.65 7 7.3 7 9 7 C9 7.33 9 7.66 9 8 C6.69 8.33 4.38 8.66 2 9 C1.67 10.32 1.34 11.64 1 13 C-1.97 13 -4.94 13 -8 13 C-8 11.68 -8 10.36 -8 9 C-5.36 8.67 -2.72 8.34 0 8 C0 5.36 0 2.72 0 0 Z " fill="#EBEBEB" transform="translate(392,850)"/>
<path d="M0 0 C2.5 1.5625 2.5 1.5625 4 4 C4.25 7.75 4.25 7.75 4 11 C3.01 11.495 3.01 11.495 2 12 C2 11.34 2 10.68 2 10 C1.34 9.67 0.68 9.34 0 9 C-1.125 6.9375 -1.125 6.9375 -2 5 C-5.93075644 5.57452746 -5.93075644 5.57452746 -9 8 C-9.66 6.02 -10.32 4.04 -11 2 C-7.31082001 -0.45945333 -4.28300443 -0.6807995 0 0 Z " fill="#F7F7F7" transform="translate(256,765)"/>
<path d="M0 0 C2.5625 0.1875 2.5625 0.1875 4.5625 2.1875 C4.8125 4.6875 4.8125 4.6875 4.5625 7.1875 C2.5625 9.1875 2.5625 9.1875 0.0625 9.5 C-1.175 9.3453125 -1.175 9.3453125 -2.4375 9.1875 C-4.4375 6.1875 -4.4375 6.1875 -4.125 3.5625 C-3.16420807 0.24340062 -3.16420807 0.24340062 0 0 Z " fill="#2F2E2E" transform="translate(327.4375,831.8125)"/>
<path d="M0 0 C2.5625 0.1875 2.5625 0.1875 4.5625 2.1875 C4.75 5.25 4.75 5.25 4.5625 8.1875 C3.5625 9.1875 3.5625 9.1875 0.5625 9.3125 C-2.4375 9.1875 -2.4375 9.1875 -3.4375 8.1875 C-3.5625 4.6875 -3.5625 4.6875 -3.4375 1.1875 C-2.4375 0.1875 -2.4375 0.1875 0 0 Z " fill="#2C2C2C" transform="translate(316.4375,763.8125)"/>
<path d="M0 0 C4.55555556 0.55555556 4.55555556 0.55555556 6 2 C6.1875 4.4375 6.1875 4.4375 6 7 C5.34 7.66 4.68 8.32 4 9 C-0.55555556 8.44444444 -0.55555556 8.44444444 -2 7 C-2.1875 4.5625 -2.1875 4.5625 -2 2 C-1.34 1.34 -0.68 0.68 0 0 Z " fill="#2A2A2A" transform="translate(252,780)"/>
<path d="M0 0 C0.33 1.32 0.66 2.64 1 4 C-4.61 4.66 -10.22 5.32 -16 6 C-15.67 5.34 -15.34 4.68 -15 4 C-12.4375 3.375 -12.4375 3.375 -10 3 C-10.66 2.34 -11.32 1.68 -12 1 C-7.93631321 0.22596442 -4.13574827 -0.0984702 0 0 Z " fill="#F2F3F3" transform="translate(284,905)"/>
<path d="M0 0 C0.33 0 0.66 0 1 0 C1 2.64 1 5.28 1 8 C1.86625 7.835 2.7325 7.67 3.625 7.5 C6.81225199 7.02781452 9.78485027 6.92344882 13 7 C13.33 7.66 13.66 8.32 14 9 C12.35 8.67 10.7 8.34 9 8 C9 8.66 9 9.32 9 10 C9.66 10.33 10.32 10.66 11 11 C7.37 11.33 3.74 11.66 0 12 C0 8.04 0 4.08 0 0 Z " fill="#F6F7F7" transform="translate(255,826)"/>
<path d="M0 0 C0.99 0.66 1.98 1.32 3 2 C2.67 4.97 2.34 7.94 2 11 C6.455 11.99 6.455 11.99 11 13 C11 13.33 11 13.66 11 14 C3.87791495 14.60356653 3.87791495 14.60356653 0 11.9375 C-2.46762853 8.3131706 -2.56823055 6.302317 -2 2 C-1.34 1.34 -0.68 0.68 0 0 Z " fill="#F6F7F6" transform="translate(247,779)"/>
<path d="M0 0 C2.64 0 5.28 0 8 0 C8 1.98 8 3.96 8 6 C7.34 5.67 6.68 5.34 6 5 C5.34 5.66 4.68 6.32 4 7 C4 6.34 4 5.68 4 5 C2.35 5 0.7 5 -1 5 C-0.67 3.35 -0.34 1.7 0 0 Z " fill="#F4F4F4" transform="translate(202,887)"/>
<path d="M0 0 C1.65 0.33 3.3 0.66 5 1 C5.33 2.65 5.66 4.3 6 6 C5.360625 6.103125 4.72125 6.20625 4.0625 6.3125 C3.381875 6.539375 2.70125 6.76625 2 7 C1.67 7.99 1.34 8.98 1 10 C-1 7 -1 7 -2 5 C-1.0625 2.375 -1.0625 2.375 0 0 Z " fill="#2A2A2B" transform="translate(333,880)"/>
<path d="M0 0 C1.33333333 0 2.66666667 0 4 0 C4.33 2.97 4.66 5.94 5 9 C4.34 9 3.68 9 3 9 C3 9.66 3 10.32 3 11 C2.01 11 1.02 11 0 11 C-1.125 3.375 -1.125 3.375 0 0 Z " fill="#EFF0F0" transform="translate(207,891)"/>
<path d="M0 0 C1.8871875 0.061875 1.8871875 0.061875 3.8125 0.125 C4.1425 1.775 4.4725 3.425 4.8125 5.125 C4.1525 4.795 3.4925 4.465 2.8125 4.125 C-0.56572416 3.98124578 -2.96140955 4.04963652 -6.1875 5.125 C-6.5175 4.135 -6.8475 3.145 -7.1875 2.125 C-4.09861478 0.06574319 -3.47814073 -0.1140374 0 0 Z " fill="#EEEFEE" transform="translate(252.1875,764.875)"/>
<path d="M0 0 C1.65 0.33 3.3 0.66 5 1 C5 2.65 5 4.3 5 6 C3.125 6.625 3.125 6.625 1 7 C0.34 6.34 -0.32 5.68 -1 5 C-0.625 2.375 -0.625 2.375 0 0 Z " fill="#242424" transform="translate(250,769)"/>
<path d="M0 0 C8.23427332 0.79175705 8.23427332 0.79175705 11 4 C11.25 7.1875 11.25 7.1875 11 10 C10.34 9.01 9.68 8.02 9 7 C8.01 7.495 8.01 7.495 7 8 C6.608125 7.195625 6.21625 6.39125 5.8125 5.5625 C4.23051809 2.76935262 4.23051809 2.76935262 1.3125 2.1875 C0.1678125 2.0946875 0.1678125 2.0946875 -1 2 C-0.67 1.34 -0.34 0.68 0 0 Z " fill="#F6F7F7" transform="translate(315,762)"/>
<path d="M0 0 C0.66 1.32 1.32 2.64 2 4 C1.01 5.485 1.01 5.485 0 7 C-3.125 7.1875 -3.125 7.1875 -6 7 C-5.8125 5.1875 -5.8125 5.1875 -5 3 C-2.4375 1.25 -2.4375 1.25 0 0 Z " fill="#F3F3F3" transform="translate(267,844)"/>
<path d="M0 0 C0.5259375 0.7734375 0.5259375 0.7734375 1.0625 1.5625 C3.09468727 3.40146383 3.09468727 3.40146383 6.6875 2.6875 C7.780625 2.460625 8.87375 2.23375 10 2 C9.05830937 4.43270079 8.47018066 5.72437686 6.1875 7.0625 C4 7 4 7 1.25 4.5625 C0.5075 3.716875 -0.235 2.87125 -1 2 C-0.67 1.34 -0.34 0.68 0 0 Z " fill="#E5E5E5" transform="translate(309,771)"/>
<path d="M0 0 C3.625 0.375 3.625 0.375 7 1 C3.777893 4.8665284 0.85077588 5.88059018 -4 7 C-2.92598892 4.08482708 -2.22189824 2.22189824 0 0 Z " fill="#DFE0E0" transform="translate(271,904)"/>
<path d="M0 0 C-0.33 0.33 -0.66 0.66 -1 1 C-0.01 1.66 0.98 2.32 2 3 C-2.455 3.495 -2.455 3.495 -7 4 C-7 2.68 -7 1.36 -7 0 C-3.86650268 -1.04449911 -3.01031744 -0.93423645 0 0 Z " fill="#E4E4E4" transform="translate(391,859)"/>
<path d="M0 0 C0.33 0 0.66 0 1 0 C1.33 3.3 1.66 6.6 2 10 C0.02 10 -1.96 10 -4 10 C-2.68 6.7 -1.36 3.4 0 0 Z " fill="#212121" transform="translate(198,836)"/>
<path d="M0 0 C0.33 0.66 0.66 1.32 1 2 C3.80980673 2.69227032 3.80980673 2.69227032 7.0625 3.125 C8.71958984 3.37636719 8.71958984 3.37636719 10.41015625 3.6328125 C11.26480469 3.75398437 12.11945312 3.87515625 13 4 C13 4.33 13 4.66 13 5 C7.72 5 2.44 5 -3 5 C-2.01 3.35 -1.02 1.7 0 0 Z " fill="#3E3E3F" transform="translate(554,541)"/>
<path d="M0 0 C0.99 0.33 1.98 0.66 3 1 C1.75482035 2.13033298 0.50363348 3.25405036 -0.75 4.375 C-1.44609375 5.00148438 -2.1421875 5.62796875 -2.859375 6.2734375 C-4.84508688 7.87505183 -6.67954093 8.96520068 -9 10 C-7.63491499 6.88271632 -6.13080302 4.91336262 -3.5625 2.6875 C-2.96566406 2.15511719 -2.36882812 1.62273438 -1.75390625 1.07421875 C-1.17511719 0.71972656 -0.59632813 0.36523438 0 0 Z " fill="#1E1D1E" transform="translate(268,35)"/>
<path d="M0 0 C0 1.32 0 2.64 0 4 C-2.97 4 -5.94 4 -9 4 C-9.33 3.01 -9.66 2.02 -10 1 C-6.59437148 0.22157062 -3.49234244 -0.09978121 0 0 Z " fill="#F6F7F7" transform="translate(406,857)"/>
<path d="M0 0 C2.9375 0.375 2.9375 0.375 6 1 C6.33 1.66 6.66 2.32 7 3 C6.67 3.66 6.34 4.32 6 5 C4.02 5 2.04 5 0 5 C0 3.35 0 1.7 0 0 Z " fill="#E7E8E8" transform="translate(177,770)"/>
<path d="M0 0 C0.66 0 1.32 0 2 0 C1.44687265 4.02992782 0.8441938 8.02022924 0 12 C-2.09350689 8.5980513 -2.17942163 5.94727588 -2 2 C-1.34 2 -0.68 2 0 2 C0 1.34 0 0.68 0 0 Z " fill="#F5F5F5" transform="translate(210,900)"/>
<path d="M0 0 C1.85776765 3.13498292 2.20140476 5.37471432 2 9 C0.68 9 -0.64 9 -2 9 C-2 6.36 -2 3.72 -2 1 C-1.34 0.67 -0.68 0.34 0 0 Z " fill="#F3F4F4" transform="translate(396,862)"/>
<path d="M0 0 C0.33 0 0.66 0 1 0 C0.79375 1.093125 0.5875 2.18625 0.375 3.3125 C-0.40346525 7.0838401 -0.40346525 7.0838401 2 10 C1.01 10 0.02 10 -1 10 C-2.0625 8.1875 -2.0625 8.1875 -3 6 C-2.67 5.01 -2.34 4.02 -2 3 C-1.34 3 -0.68 3 0 3 C0 2.01 0 1.02 0 0 Z " fill="#E6E7E7" transform="translate(343,881)"/>
<path d="M0 0 C0.33 0.99 0.66 1.98 1 3 C1.66 3 2.32 3 3 3 C3.33 2.34 3.66 1.68 4 1 C4.6875 3.3125 4.6875 3.3125 5 6 C3.5625 7.8125 3.5625 7.8125 2 9 C-0.29013653 5.5647952 -0.17842973 4.014669 0 0 Z " fill="#DBDDDD" transform="translate(267,840)"/>
<path d="M0 0 C0.33 0.99 0.66 1.98 1 3 C1.99 3.33 2.98 3.66 4 4 C3.67 4.99 3.34 5.98 3 7 C3.66 7.33 4.32 7.66 5 8 C2.36 7.67 -0.28 7.34 -3 7 C-2.01 6.67 -1.02 6.34 0 6 C0 4.02 0 2.04 0 0 Z " fill="#E2E3E3" transform="translate(255,771)"/>
<path d="M0 0 C3.3 0 6.6 0 10 0 C9.34 0.66 8.68 1.32 8 2 C8.33 2.66 8.66 3.32 9 4 C7.02 4 5.04 4 3 4 C3 3.34 3 2.68 3 2 C2.01 1.34 1.02 0.68 0 0 Z " fill="#F8F8F8" transform="translate(180,770)"/>
<path d="M0 0 C0.66 1.32 1.32 2.64 2 4 C1.01 5.485 1.01 5.485 0 7 C-3.125 7.1875 -3.125 7.1875 -6 7 C-5.67 6.34 -5.34 5.68 -5 5 C-4.34 5 -3.68 5 -3 5 C-3 4.34 -3 3.68 -3 3 C-1.5 1.375 -1.5 1.375 0 0 Z " fill="#E5E5E5" transform="translate(331,839)"/>
<path d="M0 0 C1.65 0.33 3.3 0.66 5 1 C3.75 3 3.75 3 2 5 C0.68 5 -0.64 5 -2 5 C-1.34 3.35 -0.68 1.7 0 0 Z " fill="#E6E6E7" transform="translate(316,783)"/>
<path d="M0 0 C1.52299523 2.93720508 2.80100302 5.9168649 4 9 C1.525 8.01 1.525 8.01 -1 7 C-0.67 4.69 -0.34 2.38 0 0 Z " fill="#E2E3E3" transform="translate(249,783)"/>
<path d="M0 0 C1.32 0.33 2.64 0.66 4 1 C4.625 3.3125 4.625 3.3125 5 6 C4.01 7.485 4.01 7.485 3 9 C0 3.375 0 3.375 0 0 Z " fill="#E4E5E5" transform="translate(321,768)"/>
<path d="M0 0 C1.39195915 4.17587745 -0.17676781 6.13474776 -2 10 C-2.33 9.01 -2.66 8.02 -3 7 C-3.66 6.67 -4.32 6.34 -5 6 C-3.35 4.02 -1.7 2.04 0 0 Z " fill="#202020" transform="translate(448,927)"/>
<path d="M0 0 C1.875 1.1875 1.875 1.1875 2.875 3.1875 C0.26917629 4.11815133 -0.76698224 4.33667407 -3.375 3.25 C-3.9525 2.899375 -4.53 2.54875 -5.125 2.1875 C-5.125 1.5275 -5.125 0.8675 -5.125 0.1875 C-2.125 -0.8125 -2.125 -0.8125 0 0 Z " fill="#E7E7E8" transform="translate(333.125,828.8125)"/>
<path d="M0 0 C2.31 0 4.62 0 7 0 C6.01 0.66 5.02 1.32 4 2 C4.99 2.66 5.98 3.32 7 4 C4.69 4 2.38 4 0 4 C0 2.68 0 1.36 0 0 Z " fill="#1C1C1D" transform="translate(259,828)"/>
<path d="M0 0 C0 3.88182751 -0.99521992 5.91792914 -3.625 8.75 C-4.305625 9.36875 -4.305625 9.36875 -5 10 C-5.66 9.67 -6.32 9.34 -7 9 C-4.69 6.03 -2.38 3.06 0 0 Z " fill="#1E1D1E" transform="translate(524,275)"/>
<path d="M0 0 C0.99 0.33 1.98 0.66 3 1 C2.04578192 2.14926266 1.08647955 3.29430541 0.125 4.4375 C-0.40867187 5.07558594 -0.94234375 5.71367187 -1.4921875 6.37109375 C-3 8 -3 8 -5 9 C-3.7508258 5.54074837 -2.32472205 2.85306797 0 0 Z " fill="#222122" transform="translate(607,160)"/>
<path d="M0 0 C0.33 0 0.66 0 1 0 C2.125 5.75 2.125 5.75 1 8 C-1.64 8 -4.28 8 -7 8 C-7 7.67 -7 7.34 -7 7 C-5.02 6.34 -3.04 5.68 -1 5 C-0.67 3.35 -0.34 1.7 0 0 Z " fill="#F9F9F9" transform="translate(342,893)"/>
<path d="M0 0 C1.65 0 3.3 0 5 0 C5.33 0.99 5.66 1.98 6 3 C6.66 3.33 7.32 3.66 8 4 C4.28400809 4.20086443 3.22791555 4.1519437 0 2 C0 1.34 0 0.68 0 0 Z " fill="#DADADA" transform="translate(328,896)"/>
<path d="M0 0 C1.98 0 3.96 0 6 0 C3.78065836 3.32901247 2.65316671 3.75023244 -1 5 C-1 2 -1 2 0 0 Z " fill="#E8E9E8" transform="translate(274,895)"/>
<path d="M0 0 C0.99 0 1.98 0 3 0 C3.33 0.99 3.66 1.98 4 3 C2.5625 5.1875 2.5625 5.1875 1 7 C0.34 6.67 -0.32 6.34 -1 6 C-0.67 4.02 -0.34 2.04 0 0 Z " fill="#E0E0E0" transform="translate(207,891)"/>
<path d="M0 0 C1.875 0.25 1.875 0.25 4 1 C5.25 3.0625 5.25 3.0625 6 5 C4.35 5 2.7 5 1 5 C0.67 3.35 0.34 1.7 0 0 Z " fill="#E1E1E1" transform="translate(335,887)"/>
<path d="M0 0 C1.65 0 3.3 0 5 0 C4.25 5.75 4.25 5.75 2 8 C2 6.35 2 4.7 2 3 C1.34 2.67 0.68 2.34 0 2 C0 1.34 0 0.68 0 0 Z " fill="#E6E6E7" transform="translate(193,835)"/>
<path d="M0 0 C0.99 0.33 1.98 0.66 3 1 C2.195625 1.556875 1.39125 2.11375 0.5625 2.6875 C-2.24228216 5.21864487 -2.69381595 6.32579134 -3 10 C-3.33 10 -3.66 10 -4 10 C-4.25 7.25 -4.25 7.25 -4 4 C-2 1.625 -2 1.625 0 0 Z " fill="#2C2C2C" transform="translate(246,874)"/>
<path d="M0 0 C2.375 -0.1875 2.375 -0.1875 5 0 C5.66 0.99 6.32 1.98 7 3 C5.1875 3.625 5.1875 3.625 3 4 C2.01 3.34 1.02 2.68 0 2 C0 1.34 0 0.68 0 0 Z " fill="#F1F1F1" transform="translate(254,844)"/>
<path d="M0 0 C0.33 0.99 0.66 1.98 1 3 C1.66 3.33 2.32 3.66 3 4 C3 4.66 3 5.32 3 6 C1.68 6.33 0.36 6.66 -1 7 C-2 4 -2 4 -1.0625 1.8125 C-0.5365625 0.9153125 -0.5365625 0.9153125 0 0 Z " fill="#F3F4F4" transform="translate(196,829)"/>
</svg>
